<?xml version="1.0" encoding="UTF-8"?>
<!-- Generator: visioncortex VTracer 0.6.3 -->
<svg version="1.1" xmlns="http://www.w3.org/2000/svg" width="1280" height="1280">
<path d="M0 0 C1.06 0.02 1.06 0.02 2.14 0.05 C4.12 0.09 6.09 0.15 8.07 0.21 C9.16 0.24 10.25 0.27 11.38 0.31 C14.44 0.62 14.44 0.62 17.31 1.62 C21.22 2.88 24.82 3.04 28.91 3.19 C29.7 3.22 30.5 3.26 31.33 3.3 C33.86 3.42 36.4 3.52 38.94 3.62 C42.28 3.76 45.63 3.91 48.97 4.06 C49.73 4.09 50.49 4.12 51.27 4.14 C55.69 4.35 59.24 5.13 63.44 6.62 C66.05 7.02 66.05 7.02 68.67 7.15 C70.12 7.26 70.12 7.26 71.6 7.37 C73.6 7.5 75.59 7.62 77.59 7.75 C83.62 8.19 89.04 9.22 94.84 10.93 C98.65 11.95 102.45 12.34 106.38 12.69 C110.81 13.08 114.45 13.56 118.44 15.62 C120.76 16.02 123.1 16.35 125.44 16.62 C132.02 17.41 132.02 17.41 134.36 18.63 C138.2 20.47 142.68 20.39 146.89 20.75 C151.48 21.2 155.32 22.19 159.6 23.93 C162.09 24.87 164.56 25.3 167.19 25.69 C170.72 26.22 173.27 27.03 176.44 28.62 C178.98 29.2 181.53 29.63 184.1 30.06 C186.44 30.62 186.44 30.62 189.44 32.62 C191.74 33.22 194.04 33.63 196.38 34.06 C198.44 34.62 198.44 34.62 200.44 36.62 C202.47 37.19 202.47 37.19 204.75 37.56 C208.56 38.33 211.14 39.54 214.44 41.62 C216.77 42.3 219.1 42.96 221.44 43.62 C222.1 44.28 222.76 44.95 223.44 45.62 C224.96 46.22 226.5 46.76 228.06 47.25 C228.88 47.51 229.7 47.77 230.54 48.04 C231.17 48.23 231.79 48.43 232.44 48.62 C232.44 49.28 232.44 49.95 232.44 50.62 C233.55 50.77 234.66 50.91 235.81 51.06 C239.44 51.62 239.44 51.62 241.44 52.62 C241.44 53.28 241.44 53.95 241.44 54.62 C242.51 54.73 243.58 54.83 244.69 54.94 C248.47 55.63 249.6 56.25 252.44 58.62 C254.43 59.64 256.43 60.64 258.44 61.62 C268.15 66.75 268.15 66.75 272.38 69.62 C276.23 72.14 280.28 74.09 284.41 76.11 C287.78 77.79 291.05 79.61 294.32 81.46 C297.64 83.29 301.04 84.95 304.44 86.62 C304.44 87.28 304.44 87.94 304.44 88.62 C305.41 88.83 306.38 89.04 307.38 89.25 C311.51 90.42 314.61 92.59 318.1 95.04 C320.4 96.6 322.74 97.94 325.19 99.25 C328.58 101.09 331.47 103.15 334.44 105.62 C336.09 106.64 337.76 107.64 339.44 108.62 C341.44 109.95 343.44 111.29 345.44 112.62 C346.85 113.56 346.85 113.56 348.3 114.52 C353.93 118.26 359.52 122.05 365.04 125.96 C368.22 128.17 371.46 130.27 374.72 132.36 C376.44 133.62 376.44 133.62 377.44 135.62 C379.1 136.63 380.77 137.63 382.44 138.62 C386.78 141.69 390.68 144.87 394.44 148.62 C396.57 149.86 396.57 149.86 398.44 150.62 C398.44 151.28 398.44 151.94 398.44 152.62 C400.91 153.62 400.91 153.62 403.44 154.62 C403.44 155.28 403.44 155.94 403.44 156.62 C404.21 156.97 404.21 156.97 405 157.31 C410.58 160.32 415.02 164.1 419.44 168.62 C421.83 170.72 424.23 172.79 426.64 174.86 C427.24 175.44 427.83 176.02 428.44 176.62 C428.44 177.28 428.44 177.94 428.44 178.62 C429.03 178.72 429.63 178.82 430.25 178.91 C432.91 179.78 433.78 180.82 435.5 183 C436.98 184.85 438.4 186.59 440.12 188.23 C441.44 189.62 441.44 189.62 441.44 191.62 C442.76 192.28 444.08 192.94 445.44 193.62 C445.44 194.28 445.44 194.94 445.44 195.62 C446.02 195.88 446.61 196.13 447.21 196.38 C449.73 197.79 451.19 199.31 453.06 201.5 C453.65 202.18 454.24 202.86 454.85 203.55 C456.44 205.63 456.44 205.63 457.46 207.82 C458.36 209.98 458.36 209.98 461.44 210.62 C462.98 212.12 462.98 212.12 464.62 214.06 C465.54 215.13 465.54 215.13 466.46 216.22 C469.25 219.61 471.96 223.06 474.64 226.52 C476.44 228.83 476.44 228.83 479.44 230.62 C479.77 231.62 480.1 232.61 480.44 233.62 C481.12 234.31 481.8 234.99 482.5 235.69 C483.46 236.65 483.46 236.65 484.44 237.62 C484.44 238.28 484.44 238.94 484.44 239.62 C485.43 239.96 486.42 240.28 487.44 240.62 C488.12 242.69 488.12 242.69 488.44 244.62 C489.1 244.62 489.76 244.62 490.44 244.62 C491.91 246.27 491.91 246.27 493.5 248.44 C494.03 249.15 494.55 249.85 495.1 250.58 C496.44 252.62 496.44 252.62 497.44 255.62 C498.12 256.45 498.8 257.27 499.5 258.12 C501.44 260.62 501.44 260.62 501.44 263.62 C502.43 263.95 503.42 264.29 504.44 264.62 C505.72 266.3 505.72 266.3 506.94 268.38 C507.34 269.05 507.74 269.73 508.16 270.42 C508.58 271.15 509 271.88 509.44 272.62 C509.91 273.39 510.37 274.16 510.86 274.95 C512.75 278.15 514.51 281.41 516.25 284.69 C516.77 285.67 516.77 285.67 517.31 286.68 C521.64 294.85 525.94 303.05 529.44 311.62 C529.75 312.36 530.07 313.09 530.4 313.85 C532.75 319.44 534.33 324.97 535.72 330.87 C536.63 334.36 537.9 337.36 539.44 340.62 C541.63 345.48 543.28 350.27 544.69 355.39 C545.41 357.87 545.41 357.87 547.44 360.62 C548.04 363.42 548.45 366.21 548.88 369.03 C549.32 371.84 549.32 371.84 551.44 374.62 C551.95 377.81 552.32 380.97 552.65 384.18 C553.05 387.71 553.42 389.6 555.44 392.62 C555.62 394.63 555.62 394.63 555.53 396.9 C555.51 397.72 555.49 398.55 555.47 399.4 C555.41 401.13 555.34 402.85 555.27 404.58 C555.16 409.66 555.53 412.32 558.44 416.62 C558.73 419.3 558.73 419.3 558.62 421.94 C558.6 422.82 558.57 423.7 558.54 424.61 C558.51 425.28 558.47 425.94 558.44 426.62 C557.78 426.95 557.12 427.29 556.44 427.62 C556.32 428.26 556.2 428.9 556.08 429.55 C555.44 431.62 555.44 431.62 553.55 432.86 C552.77 433.17 551.99 433.49 551.19 433.81 C550.42 434.14 549.65 434.46 548.86 434.79 C544.15 436.41 539.79 436.76 534.82 436.78 C534.17 436.79 533.52 436.79 532.85 436.8 C530.66 436.81 528.48 436.82 526.3 436.83 C524.73 436.84 523.16 436.85 521.59 436.86 C517.31 436.89 513.02 436.91 508.74 436.93 C504.18 436.95 499.63 436.98 495.07 437 C487.35 437.05 479.62 437.09 471.9 437.13 C464.13 437.17 456.35 437.21 448.58 437.25 C447.64 437.26 446.7 437.26 445.73 437.27 C444.79 437.27 443.86 437.28 442.89 437.29 C421.44 437.41 400 437.51 378.55 437.59 C372.25 437.62 365.95 437.65 359.65 437.68 C351.99 437.71 344.34 437.74 336.69 437.76 C332.78 437.77 328.86 437.78 324.95 437.8 C321.36 437.82 317.77 437.83 314.19 437.83 C312.27 437.84 310.35 437.85 308.43 437.86 C306.72 437.86 306.72 437.86 304.99 437.86 C304 437.86 303.02 437.87 302.01 437.87 C299.35 437.62 297.71 436.98 295.44 435.62 C295.11 435.95 294.78 436.29 294.44 436.62 C295.43 436.95 296.42 437.29 297.44 437.62 C296.29 437.64 295.15 437.66 293.97 437.69 C289.7 437.76 285.43 437.85 281.16 437.94 C279.32 437.98 277.47 438.02 275.63 438.05 C272.97 438.09 270.31 438.15 267.65 438.21 C266.43 438.23 266.43 438.23 265.18 438.25 C261.48 438.34 258.46 438.62 254.87 439.64 C250.92 440.77 247.3 440.84 243.23 440.75 C242.08 440.74 242.08 440.74 240.91 440.73 C237.67 440.69 234.43 440.64 231.19 440.58 C215.14 440.03 215.14 440.03 200.44 445.62 C198.49 446.14 196.55 446.66 194.59 447.1 C191.66 447.81 188.85 448.8 186 449.77 C178.54 452.26 171 454.51 163.44 456.62 C162.37 456.95 161.29 457.29 160.19 457.62 C156.18 458.69 152.18 459.41 148.09 460.06 C145.43 460.54 145.43 460.54 143.07 461.62 C139.72 462.9 136.55 463.22 133 463.62 C127.75 464.21 127.75 464.21 122.68 465.62 C116.91 467.4 110.85 467.43 104.85 467.84 C99.68 468.23 95.35 468.91 90.44 470.62 C87.65 470.99 84.87 471.13 82.06 471.25 C81.33 471.29 80.59 471.33 79.83 471.37 C78.03 471.46 76.24 471.54 74.44 471.62 C74.32 472.4 74.2 473.17 74.08 473.97 C73.19 477.64 71.17 479.08 68.44 481.62 C67.09 483.28 65.76 484.95 64.44 486.62 C63.96 487.08 63.49 487.54 63 488.01 C61.24 489.83 59.98 491.74 58.62 493.88 C54.18 500.61 50.1 506.51 42.44 509.62 C34.88 510.91 28.67 506.21 22.75 502.1 C16.46 497.52 11.45 492.32 7.44 485.62 C6.6 484.45 6.6 484.45 5.75 483.25 C3.97 479.68 3.77 476.59 3.44 472.62 C2.78 472.62 2.12 472.62 1.44 472.62 C1.44 473.29 1.44 473.94 1.44 474.62 C0.49 474.87 -0.46 475.12 -1.44 475.38 C-4.62 476.23 -4.62 476.23 -5.37 478.36 C-7.13 481.71 -9.94 483.8 -12.81 486.19 C-13.43 486.71 -14.05 487.23 -14.69 487.77 C-24.67 496.13 -34.95 504.08 -45.56 511.62 C-46.81 512.52 -46.81 512.52 -48.08 513.43 C-59.06 521.21 -70.49 528.82 -82.63 534.69 C-83.96 535.33 -85.28 536 -86.59 536.69 C-90.84 538.91 -94.91 540.35 -99.56 541.62 C-100.55 542.28 -101.54 542.95 -102.56 543.62 C-104.68 544.19 -104.68 544.19 -107 544.62 C-109.36 545.07 -111.26 545.46 -113.38 546.62 C-116.51 548.06 -119.74 548.31 -123.12 548.69 C-128.41 549.29 -128.41 549.29 -133.56 550.62 C-134.97 550.73 -136.37 550.77 -137.78 550.79 C-138.63 550.8 -139.48 550.81 -140.35 550.82 C-141.27 550.82 -142.19 550.82 -143.14 550.83 C-144.09 550.83 -145.05 550.84 -146.04 550.85 C-148.07 550.85 -150.1 550.86 -152.14 550.87 C-155.19 550.87 -158.25 550.91 -161.31 550.94 C-188.49 551.09 -188.49 551.09 -200.56 544.62 C-202.89 543.61 -205.22 542.61 -207.56 541.62 C-208.88 541.06 -210.19 540.5 -211.5 539.94 C-213.02 539.29 -213.02 539.29 -214.56 538.62 C-214.56 537.97 -214.56 537.3 -214.56 536.62 C-215.24 536.44 -215.92 536.25 -216.62 536.06 C-220.78 534.03 -223.47 531.01 -226.56 527.62 C-227.28 526.84 -228.01 526.06 -228.75 525.25 C-234.55 516.85 -235.74 508.78 -235.75 498.81 C-235.76 497.95 -235.77 497.08 -235.79 496.19 C-235.8 488.88 -234.35 482.67 -232 475.75 C-231.75 475.01 -231.5 474.27 -231.25 473.51 C-230.56 471.62 -230.56 471.62 -229.56 469.62 C-228.9 469.62 -228.24 469.62 -227.56 469.62 C-227.23 467.64 -226.9 465.66 -226.56 463.62 C-227.88 462.96 -229.2 462.31 -230.56 461.62 C-231.24 462.26 -231.92 462.9 -232.62 463.55 C-236.09 466 -238.38 466.33 -242.56 466.75 C-246.89 467.21 -250.66 467.63 -254.56 469.62 C-255.21 471.65 -255.21 471.65 -255.56 473.62 C-256.55 473.95 -257.54 474.29 -258.56 474.62 C-259.62 476.48 -259.62 476.48 -260.56 478.62 C-261.49 479.94 -262.45 481.23 -263.44 482.5 C-266.55 486.6 -269.54 490.63 -271.89 495.23 C-277.87 506.92 -277.87 506.92 -283.56 509.62 C-288.52 510.72 -292.66 510.53 -297.27 508.34 C-299.54 506.88 -301.61 505.49 -303.56 503.62 C-303.56 502.96 -303.56 502.31 -303.56 501.62 C-304.2 501.52 -304.84 501.42 -305.5 501.31 C-306.18 501.09 -306.86 500.86 -307.56 500.62 C-307.89 499.63 -308.22 498.64 -308.56 497.62 C-310.56 496.42 -310.56 496.42 -312.56 495.62 C-312.56 494.96 -312.56 494.31 -312.56 493.62 C-313.41 493.31 -313.41 493.31 -314.28 492.98 C-320.97 489.01 -326.03 479.44 -329.56 472.62 C-329.93 471.92 -330.3 471.22 -330.68 470.5 C-333.56 464.93 -333.56 464.93 -333.56 462.62 C-334.47 462.5 -335.38 462.38 -336.31 462.25 C-339.56 461.62 -339.56 461.62 -341.5 460.64 C-343.65 459.58 -345.52 459.13 -347.88 458.69 C-351.28 457.97 -354.3 457.01 -357.47 455.54 C-361.43 453.81 -365.52 452.39 -369.57 450.91 C-372.32 449.73 -374.25 448.46 -376.56 446.62 C-378.16 445.96 -379.75 445.3 -381.35 444.64 C-386.28 442.38 -391.11 439.72 -395.56 436.62 C-396.06 435.14 -396.06 435.14 -396.56 433.62 C-397.31 433.34 -398.05 433.05 -398.81 432.75 C-402.26 431.34 -404.13 429.4 -406.56 426.62 C-406.56 425.96 -406.56 425.31 -406.56 424.62 C-407.88 424.3 -409.2 423.96 -410.56 423.62 C-410.56 422.63 -410.56 421.64 -410.56 420.62 C-411.88 420.3 -413.2 419.96 -414.56 419.62 C-414.56 418.63 -414.56 417.64 -414.56 416.62 C-415.45 416.24 -415.45 416.24 -416.36 415.85 C-422.92 412.21 -428.39 403.74 -432.56 397.62 C-432.56 396.96 -432.56 396.31 -432.56 395.62 C-433.55 395.3 -434.54 394.96 -435.56 394.62 C-436.63 393 -437.61 391.32 -438.56 389.62 C-440.11 387.31 -441.68 385.01 -443.26 382.71 C-444.56 380.62 -444.56 380.62 -445.56 377.62 C-446.02 377.19 -446.47 376.76 -446.94 376.31 C-450.72 372.39 -453.56 366.08 -453.56 360.62 C-454.22 360.62 -454.88 360.62 -455.56 360.62 C-455.85 359.58 -455.85 359.58 -456.15 358.51 C-456.41 357.6 -456.67 356.69 -456.94 355.75 C-457.32 354.39 -457.32 354.39 -457.71 353.01 C-458.42 350.48 -458.42 350.48 -460.56 348.62 C-461.13 346.58 -461.62 344.51 -462.06 342.44 C-462.79 339.02 -463.54 335.69 -464.57 332.35 C-467.82 320.12 -466.72 306.24 -466.69 293.66 C-466.69 290.83 -466.69 287.99 -466.7 285.15 C-466.7 276.15 -466.58 267.17 -466.12 258.18 C-466.08 257.41 -466.04 256.65 -466 255.87 C-465.28 243.34 -465.28 243.34 -462.56 240.62 C-462.16 238.66 -461.83 236.68 -461.56 234.69 C-461.04 230.83 -460.75 228.91 -458.56 225.62 C-458.01 223.51 -457.51 221.39 -457.06 219.25 C-456.2 215.17 -455.18 211.47 -453.56 207.62 C-453.25 206.53 -452.94 205.44 -452.62 204.31 C-450.83 198.09 -448.51 192.39 -445.56 186.62 C-444.83 184.93 -444.09 183.24 -443.38 181.54 C-440.65 175.12 -437.73 168.84 -434.56 162.62 C-433.9 162.62 -433.24 162.62 -432.56 162.62 C-432.34 161.61 -432.11 160.6 -431.88 159.56 C-430.63 155.17 -428.44 152.15 -425.56 148.62 C-424.9 148.62 -424.24 148.62 -423.56 148.62 C-423.48 147.9 -423.4 147.18 -423.31 146.44 C-422.25 142.44 -419.95 139.96 -417 137.12 C-415.44 135.61 -415.44 135.61 -414.26 133.39 C-412.38 130.32 -410.27 127.61 -408 124.81 C-407.21 123.84 -406.43 122.86 -405.62 121.86 C-404.94 121.12 -404.26 120.38 -403.56 119.62 C-402.9 119.62 -402.24 119.62 -401.56 119.62 C-401.34 119.07 -401.11 118.51 -400.88 117.94 C-399.19 114.97 -397.03 112.98 -394.56 110.62 C-393.78 109.84 -393 109.06 -392.19 108.25 C-391.32 107.38 -390.45 106.52 -389.56 105.62 C-389.04 105.09 -388.51 104.55 -387.97 104 C-384.32 100.29 -380.56 96.79 -376.62 93.4 C-375.19 92.17 -373.78 90.91 -372.38 89.63 C-371.68 88.99 -370.98 88.35 -370.25 87.69 C-369.61 87.1 -368.98 86.51 -368.32 85.91 C-366.56 84.62 -366.56 84.62 -363.56 84.62 C-363.38 84.07 -363.19 83.51 -363 82.94 C-360.92 79.59 -357.95 77.58 -354.56 75.62 C-353.9 75.62 -353.24 75.62 -352.56 75.62 C-352.56 74.97 -352.56 74.31 -352.56 73.62 C-349.56 71.62 -349.56 71.62 -346.56 71.62 C-346.07 70.14 -346.07 70.14 -345.56 68.62 C-343.31 67.12 -343.31 67.12 -340.56 65.62 C-339.68 65.07 -338.79 64.51 -337.88 63.94 C-335.56 62.62 -335.56 62.62 -333.56 62.62 C-333.56 61.97 -333.56 61.3 -333.56 60.62 C-332.68 60.19 -331.79 59.76 -330.88 59.31 C-328.01 57.85 -325.3 56.3 -322.56 54.62 C-320.84 53.63 -319.11 52.65 -317.38 51.66 C-316.18 50.98 -314.99 50.29 -313.8 49.59 C-307.43 45.84 -300.92 43.33 -293.8 41.37 C-291.32 40.65 -291.32 40.65 -288.56 38.62 C-287.05 38.28 -287.05 38.28 -285.5 37.94 C-282.06 37.03 -279.67 35.41 -276.81 33.31 C-271.68 29.57 -266.42 27.03 -260.56 24.62 C-259.73 24.28 -258.89 23.93 -258.03 23.57 C-255.55 22.56 -253.06 21.58 -250.56 20.62 C-249.2 20.1 -249.2 20.1 -247.81 19.56 C-242.83 17.68 -237.97 16.11 -232.73 15.12 C-230.43 14.64 -230.43 14.64 -227.79 13.63 C-224.13 12.49 -220.54 12.02 -216.75 11.62 C-212.56 11.18 -208.52 10.64 -204.43 9.6 C-199.43 8.47 -194.68 8.39 -189.58 8.46 C-188.17 8.47 -188.17 8.47 -186.74 8.48 C-183.76 8.5 -180.79 8.53 -177.81 8.56 C-173.92 8.6 -170.03 8.63 -166.14 8.65 C-164.71 8.66 -164.71 8.66 -163.25 8.67 C-153.34 8.69 -143.46 8.2 -133.56 7.62 C-133.56 6.97 -133.56 6.3 -133.56 5.62 C-123.67 4.43 -113.84 3.37 -103.87 3.05 C-99.77 3 -99.77 3 -96.56 0.62 C-94.33 0.31 -94.33 0.31 -91.46 0.21 C-90.35 0.17 -89.25 0.13 -88.11 0.09 C-86.26 0.05 -86.26 0.05 -84.38 0 C-83.07 -0.04 -81.77 -0.07 -80.42 -0.11 C-53.63 -0.81 -26.79 -0.68 0 0 Z " fill="#EFDDC5" transform="translate(592.5625,643.375)"/>
<path d="M0 0 C1.06 0.02 1.06 0.02 2.14 0.05 C4.12 0.09 6.09 0.15 8.07 0.21 C9.16 0.24 10.25 0.27 11.38 0.31 C14.44 0.62 14.44 0.62 17.31 1.62 C21.22 2.88 24.82 3.04 28.91 3.19 C29.7 3.22 30.5 3.26 31.33 3.3 C33.86 3.42 36.4 3.52 38.94 3.62 C42.28 3.76 45.63 3.91 48.97 4.06 C49.73 4.09 50.49 4.12 51.27 4.14 C55.69 4.35 59.24 5.13 63.44 6.62 C66.05 7.02 66.05 7.02 68.67 7.15 C70.12 7.26 70.12 7.26 71.6 7.37 C73.6 7.5 75.59 7.62 77.59 7.75 C83.62 8.19 89.04 9.22 94.84 10.93 C98.65 11.95 102.45 12.34 106.38 12.69 C110.81 13.08 114.45 13.56 118.44 15.62 C120.76 16.02 123.1 16.35 125.44 16.62 C132.02 17.41 132.02 17.41 134.36 18.63 C138.2 20.47 142.68 20.39 146.89 20.75 C151.48 21.2 155.32 22.19 159.6 23.93 C162.09 24.87 164.56 25.3 167.19 25.69 C170.72 26.22 173.27 27.03 176.44 28.62 C178.98 29.2 181.53 29.63 184.1 30.06 C186.44 30.62 186.44 30.62 189.44 32.62 C191.74 33.22 194.04 33.63 196.38 34.06 C198.44 34.62 198.44 34.62 200.44 36.62 C202.47 37.19 202.47 37.19 204.75 37.56 C208.56 38.33 211.14 39.54 214.44 41.62 C216.77 42.3 219.1 42.96 221.44 43.62 C222.1 44.28 222.76 44.95 223.44 45.62 C224.96 46.22 226.5 46.76 228.06 47.25 C228.88 47.51 229.7 47.77 230.54 48.04 C231.17 48.23 231.79 48.43 232.44 48.62 C232.44 49.28 232.44 49.95 232.44 50.62 C233.55 50.77 234.66 50.91 235.81 51.06 C239.44 51.62 239.44 51.62 241.44 52.62 C241.44 53.28 241.44 53.95 241.44 54.62 C242.51 54.73 243.58 54.83 244.69 54.94 C248.47 55.63 249.6 56.25 252.44 58.62 C254.43 59.64 256.43 60.64 258.44 61.62 C268.15 66.75 268.15 66.75 272.38 69.62 C276.23 72.14 280.28 74.09 284.41 76.11 C287.78 77.79 291.05 79.61 294.32 81.46 C297.64 83.29 301.04 84.95 304.44 86.62 C304.44 87.28 304.44 87.94 304.44 88.62 C305.41 88.83 306.38 89.04 307.38 89.25 C311.51 90.42 314.61 92.59 318.1 95.04 C320.4 96.6 322.74 97.94 325.19 99.25 C328.58 101.09 331.47 103.15 334.44 105.62 C336.09 106.64 337.76 107.64 339.44 108.62 C341.44 109.95 343.44 111.29 345.44 112.62 C346.85 113.56 346.85 113.56 348.3 114.52 C353.93 118.26 359.52 122.05 365.04 125.96 C368.22 128.17 371.46 130.27 374.72 132.36 C376.44 133.62 376.44 133.62 377.44 135.62 C379.1 136.63 380.77 137.63 382.44 138.62 C386.78 141.69 390.68 144.87 394.44 148.62 C396.57 149.86 396.57 149.86 398.44 150.62 C398.44 151.28 398.44 151.94 398.44 152.62 C400.91 153.62 400.91 153.62 403.44 154.62 C403.44 155.28 403.44 155.94 403.44 156.62 C404.21 156.97 404.21 156.97 405 157.31 C410.58 160.32 415.02 164.1 419.44 168.62 C421.83 170.72 424.23 172.79 426.64 174.86 C427.24 175.44 427.83 176.02 428.44 176.62 C428.44 177.28 428.44 177.94 428.44 178.62 C429.03 178.72 429.63 178.82 430.25 178.91 C432.91 179.78 433.78 180.82 435.5 183 C436.98 184.85 438.4 186.59 440.12 188.23 C441.44 189.62 441.44 189.62 441.44 191.62 C442.76 192.28 444.08 192.94 445.44 193.62 C445.44 194.28 445.44 194.94 445.44 195.62 C446.02 195.88 446.61 196.13 447.21 196.38 C449.73 197.79 451.19 199.31 453.06 201.5 C453.65 202.18 454.24 202.86 454.85 203.55 C456.44 205.63 456.44 205.63 457.46 207.82 C458.36 209.98 458.36 209.98 461.44 210.62 C462.98 212.12 462.98 212.12 464.62 214.06 C465.54 215.13 465.54 215.13 466.46 216.22 C469.25 219.61 471.96 223.06 474.64 226.52 C476.44 228.83 476.44 228.83 479.44 230.62 C479.77 231.62 480.1 232.61 480.44 233.62 C481.12 234.31 481.8 234.99 482.5 235.69 C483.46 236.65 483.46 236.65 484.44 237.62 C484.44 238.28 484.44 238.94 484.44 239.62 C485.43 239.96 486.42 240.28 487.44 240.62 C488.12 242.69 488.12 242.69 488.44 244.62 C489.1 244.62 489.76 244.62 490.44 244.62 C491.91 246.27 491.91 246.27 493.5 248.44 C494.03 249.15 494.55 249.85 495.1 250.58 C496.44 252.62 496.44 252.62 497.44 255.62 C498.12 256.45 498.8 257.27 499.5 258.12 C501.44 260.62 501.44 260.62 501.44 263.62 C502.43 263.95 503.42 264.29 504.44 264.62 C505.72 266.3 505.72 266.3 506.94 268.38 C507.34 269.05 507.74 269.73 508.16 270.42 C508.58 271.15 509 271.88 509.44 272.62 C509.91 273.39 510.37 274.16 510.86 274.95 C512.75 278.15 514.51 281.41 516.25 284.69 C516.77 285.67 516.77 285.67 517.31 286.68 C521.64 294.85 525.94 303.05 529.44 311.62 C529.75 312.36 530.07 313.09 530.4 313.85 C532.75 319.44 534.33 324.97 535.72 330.87 C536.63 334.36 537.9 337.36 539.44 340.62 C541.63 345.48 543.28 350.27 544.69 355.39 C545.41 357.87 545.41 357.87 547.44 360.62 C548.04 363.42 548.45 366.21 548.88 369.03 C549.32 371.84 549.32 371.84 551.44 374.62 C551.95 377.81 552.32 380.97 552.65 384.18 C553.05 387.71 553.42 389.6 555.44 392.62 C555.62 394.63 555.62 394.63 555.53 396.9 C555.51 397.72 555.49 398.55 555.47 399.4 C555.41 401.13 555.34 402.85 555.27 404.58 C555.16 409.66 555.53 412.32 558.44 416.62 C558.73 419.3 558.73 419.3 558.62 421.94 C558.6 422.82 558.57 423.7 558.54 424.61 C558.51 425.28 558.47 425.94 558.44 426.62 C557.78 426.95 557.12 427.29 556.44 427.62 C556.32 428.26 556.2 428.9 556.08 429.55 C555.44 431.62 555.44 431.62 553.55 432.86 C552.77 433.17 551.99 433.49 551.19 433.81 C550.42 434.14 549.65 434.46 548.86 434.79 C544.15 436.41 539.79 436.76 534.82 436.78 C534.17 436.79 533.52 436.79 532.85 436.8 C530.66 436.81 528.48 436.82 526.3 436.83 C524.73 436.84 523.16 436.85 521.59 436.86 C517.31 436.89 513.02 436.91 508.74 436.93 C504.18 436.95 499.63 436.98 495.07 437 C487.35 437.05 479.62 437.09 471.9 437.13 C464.13 437.17 456.35 437.21 448.58 437.25 C447.64 437.26 446.7 437.26 445.73 437.27 C444.79 437.27 443.86 437.28 442.89 437.29 C421.44 437.41 400 437.51 378.55 437.59 C372.25 437.62 365.95 437.65 359.65 437.68 C351.99 437.71 344.34 437.74 336.69 437.76 C332.78 437.77 328.86 437.78 324.95 437.8 C321.36 437.82 317.77 437.83 314.19 437.83 C312.27 437.84 310.35 437.85 308.43 437.86 C306.72 437.86 306.72 437.86 304.99 437.86 C304 437.86 303.02 437.87 302.01 437.87 C299.35 437.62 297.71 436.98 295.44 435.62 C295.11 435.95 294.78 436.29 294.44 436.62 C295.43 436.95 296.42 437.29 297.44 437.62 C296.29 437.64 295.15 437.66 293.97 437.69 C289.7 437.76 285.43 437.85 281.16 437.94 C279.32 437.98 277.47 438.02 275.63 438.05 C272.97 438.09 270.31 438.15 267.65 438.21 C266.43 438.23 266.43 438.23 265.18 438.25 C261.48 438.34 258.46 438.62 254.87 439.64 C250.92 440.77 247.3 440.84 243.23 440.75 C242.08 440.74 242.08 440.74 240.91 440.73 C237.67 440.69 234.43 440.64 231.19 440.58 C215.14 440.03 215.14 440.03 200.44 445.62 C198.49 446.14 196.55 446.66 194.59 447.1 C191.66 447.81 188.85 448.8 186 449.77 C178.54 452.26 171 454.51 163.44 456.62 C162.37 456.95 161.29 457.29 160.19 457.62 C156.18 458.69 152.18 459.41 148.09 460.06 C145.43 460.54 145.43 460.54 143.07 461.62 C139.72 462.9 136.55 463.22 133 463.62 C127.75 464.21 127.75 464.21 122.68 465.62 C116.91 467.4 110.85 467.43 104.85 467.84 C99.68 468.23 95.35 468.91 90.44 470.62 C87.65 470.99 84.87 471.13 82.06 471.25 C81.33 471.29 80.59 471.33 79.83 471.37 C78.03 471.46 76.24 471.54 74.44 471.62 C74.32 472.4 74.2 473.17 74.08 473.97 C73.19 477.64 71.17 479.08 68.44 481.62 C67.09 483.28 65.76 484.95 64.44 486.62 C63.96 487.08 63.49 487.54 63 488.01 C61.24 489.83 59.98 491.74 58.62 493.88 C54.18 500.61 50.1 506.51 42.44 509.62 C34.88 510.91 28.67 506.21 22.75 502.1 C16.46 497.52 11.45 492.32 7.44 485.62 C6.6 484.45 6.6 484.45 5.75 483.25 C3.97 479.68 3.77 476.59 3.44 472.62 C2.78 472.62 2.12 472.62 1.44 472.62 C1.44 473.29 1.44 473.94 1.44 474.62 C0.49 474.87 -0.46 475.12 -1.44 475.38 C-4.62 476.23 -4.62 476.23 -5.37 478.36 C-7.13 481.71 -9.94 483.8 -12.81 486.19 C-13.43 486.71 -14.05 487.23 -14.69 487.77 C-24.67 496.13 -34.95 504.08 -45.56 511.62 C-46.81 512.52 -46.81 512.52 -48.08 513.43 C-59.06 521.21 -70.49 528.82 -82.63 534.69 C-83.96 535.33 -85.28 536 -86.59 536.69 C-90.84 538.91 -94.91 540.35 -99.56 541.62 C-100.55 542.28 -101.54 542.95 -102.56 543.62 C-104.68 544.19 -104.68 544.19 -107 544.62 C-109.36 545.07 -111.26 545.46 -113.38 546.62 C-116.51 548.06 -119.74 548.31 -123.12 548.69 C-128.41 549.29 -128.41 549.29 -133.56 550.62 C-134.97 550.73 -136.37 550.77 -137.78 550.79 C-138.63 550.8 -139.48 550.81 -140.35 550.82 C-141.27 550.82 -142.19 550.82 -143.14 550.83 C-144.09 550.83 -145.05 550.84 -146.04 550.85 C-148.07 550.85 -150.1 550.86 -152.14 550.87 C-155.19 550.87 -158.25 550.91 -161.31 550.94 C-188.49 551.09 -188.49 551.09 -200.56 544.62 C-202.89 543.61 -205.22 542.61 -207.56 541.62 C-208.88 541.06 -210.19 540.5 -211.5 539.94 C-213.02 539.29 -213.02 539.29 -214.56 538.62 C-214.56 537.97 -214.56 537.3 -214.56 536.62 C-215.24 536.44 -215.92 536.25 -216.62 536.06 C-220.78 534.03 -223.47 531.01 -226.56 527.62 C-227.28 526.84 -228.01 526.06 -228.75 525.25 C-234.55 516.85 -235.74 508.78 -235.75 498.81 C-235.76 497.95 -235.77 497.08 -235.79 496.19 C-235.8 488.88 -234.35 482.67 -232 475.75 C-231.75 475.01 -231.5 474.27 -231.25 473.51 C-230.56 471.62 -230.56 471.62 -229.56 469.62 C-228.9 469.62 -228.24 469.62 -227.56 469.62 C-227.23 467.64 -226.9 465.66 -226.56 463.62 C-227.88 462.96 -229.2 462.31 -230.56 461.62 C-231.24 462.26 -231.92 462.9 -232.62 463.55 C-236.09 466 -238.38 466.33 -242.56 466.75 C-246.89 467.21 -250.66 467.63 -254.56 469.62 C-255.21 471.65 -255.21 471.65 -255.56 473.62 C-256.55 473.95 -257.54 474.29 -258.56 474.62 C-259.62 476.48 -259.62 476.48 -260.56 478.62 C-261.49 479.94 -262.45 481.23 -263.44 482.5 C-266.55 486.6 -269.54 490.63 -271.89 495.23 C-277.87 506.92 -277.87 506.92 -283.56 509.62 C-288.52 510.72 -292.66 510.53 -297.27 508.34 C-299.54 506.88 -301.61 505.49 -303.56 503.62 C-303.56 502.96 -303.56 502.31 -303.56 501.62 C-304.2 501.52 -304.84 501.42 -305.5 501.31 C-306.18 501.09 -306.86 500.86 -307.56 500.62 C-307.89 499.63 -308.22 498.64 -308.56 497.62 C-310.56 496.42 -310.56 496.42 -312.56 495.62 C-312.56 494.96 -312.56 494.31 -312.56 493.62 C-313.41 493.31 -313.41 493.31 -314.28 492.98 C-320.97 489.01 -326.03 479.44 -329.56 472.62 C-329.93 471.92 -330.3 471.22 -330.68 470.5 C-333.56 464.93 -333.56 464.93 -333.56 462.62 C-334.47 462.5 -335.38 462.38 -336.31 462.25 C-339.56 461.62 -339.56 461.62 -341.5 460.64 C-343.65 459.58 -345.52 459.13 -347.88 458.69 C-351.28 457.97 -354.3 457.01 -357.47 455.54 C-361.43 453.81 -365.52 452.39 -369.57 450.91 C-372.32 449.73 -374.25 448.46 -376.56 446.62 C-378.16 445.96 -379.75 445.3 -381.35 444.64 C-386.28 442.38 -391.11 439.72 -395.56 436.62 C-396.06 435.14 -396.06 435.14 -396.56 433.62 C-397.31 433.34 -398.05 433.05 -398.81 432.75 C-402.26 431.34 -404.13 429.4 -406.56 426.62 C-406.56 425.96 -406.56 425.31 -406.56 424.62 C-407.88 424.3 -409.2 423.96 -410.56 423.62 C-410.56 422.63 -410.56 421.64 -410.56 420.62 C-411.88 420.3 -413.2 419.96 -414.56 419.62 C-414.56 418.63 -414.56 417.64 -414.56 416.62 C-415.45 416.24 -415.45 416.24 -416.36 415.85 C-422.92 412.21 -428.39 403.74 -432.56 397.62 C-432.56 396.96 -432.56 396.31 -432.56 395.62 C-433.55 395.3 -434.54 394.96 -435.56 394.62 C-436.63 393 -437.61 391.32 -438.56 389.62 C-440.11 387.31 -441.68 385.01 -443.26 382.71 C-444.56 380.62 -444.56 380.62 -445.56 377.62 C-446.02 377.19 -446.47 376.76 -446.94 376.31 C-450.72 372.39 -453.56 366.08 -453.56 360.62 C-454.22 360.62 -454.88 360.62 -455.56 360.62 C-455.85 359.58 -455.85 359.58 -456.15 358.51 C-456.41 357.6 -456.67 356.69 -456.94 355.75 C-457.32 354.39 -457.32 354.39 -457.71 353.01 C-458.42 350.48 -458.42 350.48 -460.56 348.62 C-461.13 346.58 -461.62 344.51 -462.06 342.44 C-462.79 339.02 -463.54 335.69 -464.57 332.35 C-467.82 320.12 -466.72 306.24 -466.69 293.66 C-466.69 290.83 -466.69 287.99 -466.7 285.15 C-466.7 276.15 -466.58 267.17 -466.12 258.18 C-466.08 257.41 -466.04 256.65 -466 255.87 C-465.28 243.34 -465.28 243.34 -462.56 240.62 C-462.16 238.66 -461.83 236.68 -461.56 234.69 C-461.04 230.83 -460.75 228.91 -458.56 225.62 C-458.01 223.51 -457.51 221.39 -457.06 219.25 C-456.2 215.17 -455.18 211.47 -453.56 207.62 C-453.25 206.53 -452.94 205.44 -452.62 204.31 C-450.83 198.09 -448.51 192.39 -445.56 186.62 C-444.83 184.93 -444.09 183.24 -443.38 181.54 C-440.65 175.12 -437.73 168.84 -434.56 162.62 C-433.9 162.62 -433.24 162.62 -432.56 162.62 C-432.34 161.61 -432.11 160.6 -431.88 159.56 C-430.63 155.17 -428.44 152.15 -425.56 148.62 C-424.9 148.62 -424.24 148.62 -423.56 148.62 C-423.48 147.9 -423.4 147.18 -423.31 146.44 C-422.25 142.44 -419.95 139.96 -417 137.12 C-415.44 135.61 -415.44 135.61 -414.26 133.39 C-412.38 130.32 -410.27 127.61 -408 124.81 C-407.21 123.84 -406.43 122.86 -405.62 121.86 C-404.94 121.12 -404.26 120.38 -403.56 119.62 C-402.9 119.62 -402.24 119.62 -401.56 119.62 C-401.34 119.07 -401.11 118.51 -400.88 117.94 C-399.19 114.97 -397.03 112.98 -394.56 110.62 C-393.78 109.84 -393 109.06 -392.19 108.25 C-391.32 107.38 -390.45 106.52 -389.56 105.62 C-389.04 105.09 -388.51 104.55 -387.97 104 C-384.32 100.29 -380.56 96.79 -376.62 93.4 C-375.19 92.17 -373.78 90.91 -372.38 89.63 C-371.68 88.99 -370.98 88.35 -370.25 87.69 C-369.61 87.1 -368.98 86.51 -368.32 85.91 C-366.56 84.62 -366.56 84.62 -363.56 84.62 C-363.38 84.07 -363.19 83.51 -363 82.94 C-360.92 79.59 -357.95 77.58 -354.56 75.62 C-353.9 75.62 -353.24 75.62 -352.56 75.62 C-352.56 74.97 -352.56 74.31 -352.56 73.62 C-349.56 71.62 -349.56 71.62 -346.56 71.62 C-346.07 70.14 -346.07 70.14 -345.56 68.62 C-343.31 67.12 -343.31 67.12 -340.56 65.62 C-339.68 65.07 -338.79 64.51 -337.88 63.94 C-335.56 62.62 -335.56 62.62 -333.56 62.62 C-333.56 61.97 -333.56 61.3 -333.56 60.62 C-332.68 60.19 -331.79 59.76 -330.88 59.31 C-328.01 57.85 -325.3 56.3 -322.56 54.62 C-320.84 53.63 -319.11 52.65 -317.38 51.66 C-316.18 50.98 -314.99 50.29 -313.8 49.59 C-307.43 45.84 -300.92 43.33 -293.8 41.37 C-291.32 40.65 -291.32 40.65 -288.56 38.62 C-287.05 38.28 -287.05 38.28 -285.5 37.94 C-282.06 37.03 -279.67 35.41 -276.81 33.31 C-271.68 29.57 -266.42 27.03 -260.56 24.62 C-259.73 24.28 -258.89 23.93 -258.03 23.57 C-255.55 22.56 -253.06 21.58 -250.56 20.62 C-249.2 20.1 -249.2 20.1 -247.81 19.56 C-242.83 17.68 -237.97 16.11 -232.73 15.12 C-230.43 14.64 -230.43 14.64 -227.79 13.63 C-224.13 12.49 -220.54 12.02 -216.75 11.62 C-212.56 11.18 -208.52 10.64 -204.43 9.6 C-199.43 8.47 -194.68 8.39 -189.58 8.46 C-188.17 8.47 -188.17 8.47 -186.74 8.48 C-183.76 8.5 -180.79 8.53 -177.81 8.56 C-173.92 8.6 -170.03 8.63 -166.14 8.65 C-164.71 8.66 -164.71 8.66 -163.25 8.67 C-153.34 8.69 -143.46 8.2 -133.56 7.62 C-133.56 6.97 -133.56 6.3 -133.56 5.62 C-123.67 4.43 -113.84 3.37 -103.87 3.05 C-99.77 3 -99.77 3 -96.56 0.62 C-94.33 0.31 -94.33 0.31 -91.46 0.21 C-90.35 0.17 -89.25 0.13 -88.11 0.09 C-86.26 0.05 -86.26 0.05 -84.38 0 C-83.07 -0.04 -81.77 -0.07 -80.42 -0.11 C-53.63 -0.81 -26.79 -0.68 0 0 Z M-308.86 59.86 C-309.67 60.35 -310.47 60.83 -311.3 61.33 C-312.15 61.86 -313 62.39 -313.88 62.94 C-314.76 63.48 -315.65 64.03 -316.57 64.59 C-333.62 75.14 -350.5 86.71 -365.19 100.43 C-367.17 102.26 -369.18 104.02 -371.22 105.77 C-383.22 116.24 -395.1 127.78 -404.56 140.62 C-404.96 141.15 -405.35 141.68 -405.75 142.22 C-418.74 159.69 -418.74 159.69 -428.5 179 C-429.71 181.99 -431.18 184.77 -432.69 187.62 C-441.23 204.43 -446.65 222.49 -451.56 240.62 C-451.84 241.61 -451.84 241.61 -452.11 242.61 C-461.29 283.84 -456.5 336.26 -433.85 372.62 C-426.31 384.39 -417.88 395.21 -408.56 405.62 C-407.73 406.56 -406.91 407.5 -406.05 408.47 C-403.91 410.88 -401.75 413.26 -399.56 415.62 C-398.69 416.58 -398.69 416.58 -397.8 417.55 C-385.07 430.93 -366.86 438.92 -349.56 444.62 C-348.8 444.88 -348.03 445.13 -347.24 445.39 C-310.8 457.27 -274.71 459.37 -237.31 450.75 C-236.21 450.51 -235.1 450.26 -233.96 450.01 C-225.05 447.97 -217.37 445.37 -210.06 439.75 C-204.64 435.68 -199.2 431.66 -193.27 428.34 C-182.21 422.15 -172.94 413.09 -163.7 404.49 C-161.56 402.62 -161.56 402.62 -159.55 401.38 C-157.53 400.27 -157.53 400.27 -155.56 397.62 C-155.68 393.48 -156.5 389.63 -157.56 385.62 C-155.69 385.88 -155.69 385.88 -153.56 386.62 C-152.86 387.94 -152.2 389.28 -151.56 390.62 C-124.14 419.96 -83.03 437.76 -44.56 446.62 C-43.82 446.8 -43.08 446.97 -42.31 447.15 C2.83 457.59 58.52 462.86 104.23 454.03 C106.45 453.62 108.66 453.3 110.89 453 C154.2 447.13 197.62 432.46 237.56 414.88 C240.57 413.57 243.61 412.31 246.65 411.06 C251.45 409.07 256.12 406.92 260.75 404.56 C261.4 404.24 262.05 403.91 262.72 403.58 C265.96 401.94 269.14 400.24 272.27 398.43 C275.51 396.58 277.76 395.62 281.44 395.62 C276.79 399.12 272.15 402.61 267.49 406.09 C265.74 407.4 263.99 408.71 262.24 410.03 C256.85 414.03 251.41 417.56 245.44 420.62 C245.44 421.29 245.44 421.94 245.44 422.62 C246.61 422.67 247.78 422.72 248.99 422.77 C263.27 423.43 263.27 423.43 268.81 424.69 C273.67 425.69 278.34 425.77 283.28 425.74 C284.16 425.74 285.04 425.74 285.94 425.73 C294.57 425.68 303.18 425.32 311.79 424.96 C347.66 423.48 383.53 423.23 419.42 422.99 C423.96 422.96 428.5 422.93 433.04 422.89 C436.16 422.87 439.28 422.86 442.4 422.84 C453.56 422.77 464.68 422.46 475.82 421.85 C482.96 421.47 490.1 421.43 497.25 421.44 C498.34 421.44 498.34 421.44 499.45 421.44 C515.49 421.44 531.44 422.39 547.44 423.62 C548.16 407.07 543.11 392.38 537.88 376.93 C536.43 372.63 535.04 368.32 533.64 364 C521.73 327.18 506.2 293.93 483.94 262.12 C483.48 261.47 483.03 260.82 482.56 260.15 C481.22 258.28 479.84 256.45 478.44 254.62 C477.94 253.98 477.45 253.33 476.94 252.66 C472.13 246.74 466.38 242.8 460 238.69 C458.93 237.99 457.86 237.29 456.76 236.57 C449.16 231.64 441.49 226.95 433.49 222.72 C431.24 221.52 429.01 220.29 426.78 219.06 C407.11 208.36 386.48 199.9 365.44 192.31 C364.42 191.94 364.42 191.94 363.39 191.56 C361.47 190.87 359.55 190.19 357.62 189.51 C356.53 189.12 355.43 188.73 354.29 188.33 C351.46 187.63 350.12 187.6 347.44 188.62 C346.55 193.87 346.37 198.8 346.52 204.11 C346.55 205.77 346.58 207.43 346.6 209.09 C346.62 209.95 346.63 210.82 346.65 211.7 C346.9 229.34 345.63 245.43 341.44 262.62 C340.96 264.72 340.49 266.81 340.02 268.9 C331.3 306.46 318.39 331.67 286.58 354.1 C283.45 356.33 280.38 358.62 277.31 360.94 C276.36 361.66 275.41 362.37 274.43 363.11 C273.77 363.61 273.11 364.11 272.44 364.62 C273.05 356.68 274.13 348.87 275.38 341 C281.17 302.91 283.63 260.3 269.44 223.62 C269.18 222.87 268.92 222.12 268.65 221.35 C263.63 207.62 255.65 189.2 243.44 180.62 C242.84 180.01 242.23 179.39 241.61 178.75 C239.32 176.51 236.96 174.79 234.31 173 C231.81 171.3 229.58 169.77 227.44 167.62 C224.82 167.3 222.31 167.1 219.69 167 C218.49 166.95 218.49 166.95 217.27 166.9 C192.9 166.02 168.54 166.81 144.19 167.62 C39.36 171.11 39.36 171.11 -6.56 151.62 C-7.29 151.32 -8.01 151.01 -8.76 150.7 C-16.91 147.19 -24.64 143.17 -32.19 138.5 C-32.83 138.1 -33.47 137.71 -34.12 137.3 C-45.82 129.82 -45.82 129.82 -48.56 123.62 C-51.92 126.74 -54.38 130.19 -56.88 134 C-65.01 145.9 -65.01 145.9 -71.12 147.15 C-77.3 147.51 -81.42 146.19 -86.49 142.72 C-89 141.39 -90.77 141.43 -93.56 141.62 C-96.31 146.2 -97.51 150.34 -96.56 155.62 C-94.19 161.69 -91.13 167.37 -88.09 173.12 C-85.38 179.34 -85.07 184.1 -87.45 190.33 C-93.74 203.34 -107.66 214.64 -118.81 223.45 C-122.01 225.98 -125.13 228.61 -128.25 231.25 C-128.8 231.72 -129.36 232.19 -129.93 232.67 C-132.93 235.22 -135.91 237.78 -138.88 240.38 C-139.5 240.92 -140.12 241.46 -140.76 242.02 C-141.98 243.1 -143.18 244.21 -144.37 245.32 C-155.38 255.49 -168.31 262.79 -183.45 263.35 C-184.49 263.49 -184.49 263.49 -185.56 263.62 C-185.89 264.28 -186.22 264.94 -186.56 265.62 C-185.9 265.62 -185.24 265.62 -184.56 265.62 C-184.61 266.67 -184.61 266.67 -184.67 267.73 C-185.55 301.01 -173.8 334.17 -161.56 364.62 C-181.55 340.64 -192.74 299.7 -191.25 269.12 C-191.22 264.79 -191.22 264.03 -194.12 260.56 C-196.91 258.99 -199.63 257.66 -202.59 256.48 C-210.02 253.26 -215.93 248.59 -221.81 243.11 C-224.89 240.33 -228.1 237.79 -231.38 235.25 C-271.89 203.77 -271.89 203.77 -275.56 180.62 C-275.7 179.17 -275.78 177.71 -275.81 176.25 C-275.85 175.19 -275.85 175.19 -275.89 174.1 C-275.11 168.19 -271.65 162.86 -268.88 157.69 C-265.35 150.84 -264.52 146.73 -266.44 139.19 C-267.3 136.49 -267.3 136.49 -269.56 135.62 C-271.23 136.29 -272.9 136.95 -274.56 137.62 C-280.97 138.55 -286.95 138.13 -292.49 134.62 C-302.02 125.45 -304.7 109.99 -305 97.34 C-305.02 95.15 -305.02 92.97 -305.01 90.78 C-305 88.56 -305.03 86.35 -305.06 84.13 C-305.11 74.62 -303.87 66.24 -299.56 57.62 C-303.42 57.38 -305.58 57.86 -308.86 59.86 Z " fill="#060203" transform="translate(592.5625,643.375)"/>
<path d="M0 0 C4.42 0.01 8.85 0 13.27 -0.01 C40.69 -0.07 67.9 0.84 95.17 3.83 C99.2 4.26 103.23 4.46 107.28 4.64 C126.91 5.58 146.6 8.97 165.94 12.32 C171.33 13.25 176.74 14.05 182.16 14.82 C189.71 15.93 197.08 17.35 204.47 19.26 C205.18 19.44 205.88 19.62 206.61 19.8 C216.96 22.42 227.2 25.27 237.35 28.58 C239.57 29.29 241.79 29.98 244.01 30.67 C275.84 40.75 306.43 54.62 335.31 71.3 C339.56 73.76 343.86 76.07 348.22 78.32 C379.34 94.68 408.83 116.63 436.47 138.26 C437.59 139.13 438.7 140 439.82 140.87 C463.62 159.43 463.62 159.43 474.47 169.26 C475.3 170 476.13 170.73 476.98 171.49 C483.43 177.3 489.64 183.32 495.78 189.45 C496.54 190.2 497.29 190.94 498.06 191.72 C502.17 195.83 506.11 200.04 509.9 204.45 C512.06 206.94 514.3 209.34 516.53 211.76 C520.48 216.08 524.04 220.53 527.47 225.26 C528.8 226.93 530.12 228.6 531.47 230.26 C531.14 230.92 530.81 231.58 530.47 232.26 C529.3 231.39 529.3 231.39 528.11 230.5 C497.35 207.81 462.27 191.77 426.41 179.01 C425.73 178.77 425.05 178.52 424.34 178.27 C417.08 175.4 417.08 175.4 409.47 174.26 C408.58 179.51 408.4 184.43 408.55 189.75 C408.58 191.41 408.61 193.07 408.64 194.73 C408.65 195.59 408.67 196.45 408.68 197.34 C408.93 214.97 407.66 231.07 403.47 248.26 C403 250.35 402.52 252.45 402.05 254.54 C391.3 300.86 371.66 325.36 332.47 351.26 C332.21 345.03 333.23 339.25 334.35 333.14 C336.19 322.58 337.44 312.08 338.29 301.4 C338.44 299.64 338.62 297.89 338.81 296.13 C341.81 267.93 339.78 235.89 329.47 209.26 C329.21 208.51 328.95 207.76 328.68 206.99 C323.44 192.64 315.63 175.81 303.47 166.26 C303.47 165.6 303.47 164.94 303.47 164.26 C302.38 163.88 302.38 163.88 301.27 163.48 C298.34 162.2 296.21 160.7 293.72 158.7 C292.94 158.08 292.16 157.46 291.36 156.82 C289.47 155.26 289.47 155.26 288.47 154.26 C260.96 151.54 232.8 153.34 205.22 154.26 C100.39 157.75 100.39 157.75 54.47 138.26 C53.75 137.95 53.02 137.65 52.27 137.33 C38.29 131.31 20.83 123.51 11.72 110.82 C11.39 107.39 12.57 105.52 14.33 102.62 C19.46 92.03 19.23 77.26 15.66 66.26 C7.42 46.34 -3.89 30.25 -22.53 19.26 C-23.15 18.89 -23.76 18.53 -24.4 18.15 C-34 12.5 -43.95 8.69 -54.53 5.26 C-55.52 4.93 -56.51 4.6 -57.53 4.26 C-57.53 3.6 -57.53 2.94 -57.53 2.26 C-38.36 -0 -19.27 -0.05 0 0 Z " fill="#44A4C3" transform="translate(531.529296875,657.7392578125)"/>
<path d="M0 0 C-0.5 1.21 -0.99 2.42 -1.5 3.67 C-6.04 14.83 -10.38 26.04 -14.17 37.48 C-14.72 39.15 -15.28 40.82 -15.85 42.49 C-29.68 83.19 -27.51 138 -9 177.12 C-1 192.99 9.84 207.26 21.64 220.47 C22.89 221.88 24.13 223.31 25.37 224.74 C27.53 227.21 29.74 229.62 32 232 C32.73 232.8 33.47 233.59 34.23 234.41 C46.75 246.94 64.3 254.67 81 260 C81.76 260.25 82.52 260.5 83.3 260.76 C119.75 272.65 155.84 274.75 193.25 266.12 C194.36 265.88 195.46 265.64 196.6 265.39 C205.51 263.34 213.19 260.74 220.5 255.12 C225.92 251.05 231.36 247.03 237.29 243.72 C248.36 237.52 257.51 228.46 266.82 219.94 C269.15 217.87 271.55 215.93 274 214 C273.83 213.32 273.67 212.64 273.5 211.94 C272.93 208.58 272.93 205.4 273 202 C276.59 202.56 277.86 203.67 280.06 206.5 C305.11 236.24 349.15 253.43 386 262 C387.12 262.26 387.12 262.26 388.26 262.53 C433.4 272.97 489.09 278.23 534.79 269.41 C537.01 269 539.22 268.68 541.45 268.38 C584.77 262.51 628.18 247.84 668.12 230.25 C671.14 228.94 674.17 227.68 677.21 226.43 C682.01 224.44 686.68 222.3 691.31 219.94 C691.96 219.61 692.61 219.29 693.28 218.95 C696.52 217.32 699.7 215.62 702.84 213.8 C705.43 212.33 707.14 211.49 710 211 C711.11 210.72 711.11 210.72 712.25 210.44 C712.83 210.29 713.4 210.15 714 210 C710.51 213.63 706.9 216.75 702.88 219.81 C702.03 220.46 702.03 220.46 701.17 221.11 C695.84 225.16 690.45 229.12 685 233 C684.37 233.46 683.74 233.91 683.09 234.38 C680.46 236.23 679.31 237 676 237 C676 237.66 676 238.32 676 239 C677.17 238.98 678.34 238.95 679.55 238.93 C693.82 238.73 693.82 238.73 699.38 240 C704.24 241.06 708.89 241.15 713.84 241.12 C715.16 241.12 715.16 241.12 716.5 241.11 C725.13 241.05 733.74 240.7 742.36 240.34 C778.22 238.85 814.09 238.6 849.98 238.37 C854.52 238.33 859.06 238.3 863.6 238.27 C866.72 238.25 869.84 238.23 872.97 238.21 C884.12 238.14 895.23 237.83 906.37 237.23 C913.62 236.84 920.87 236.8 928.12 236.81 C929.23 236.81 929.23 236.81 930.35 236.81 C963.22 236.83 963.22 236.83 978 240 C977.54 223.61 972.57 208.7 967.43 193.3 C966.23 189.72 965.06 186.12 963.9 182.53 C951.23 143.24 934.87 107.24 910 74 C913 74 913 74 915 75 C917.55 74.33 920 73.46 922.49 72.59 C925.16 71.96 926.47 71.99 929 73 C931.38 75.55 932 76.44 932 80 C932.99 80.33 933.98 80.66 935 81 C936.28 82.67 936.28 82.67 937.5 84.75 C937.9 85.43 938.3 86.1 938.72 86.8 C939.14 87.52 939.56 88.25 940 89 C940.47 89.77 940.94 90.53 941.42 91.32 C943.31 94.52 945.07 97.78 946.81 101.06 C947.16 101.72 947.51 102.37 947.87 103.05 C952.2 111.23 956.51 119.42 960 128 C960.48 129.1 960.48 129.1 960.96 130.22 C963.32 135.81 964.89 141.35 966.29 147.24 C967.19 150.74 968.46 153.73 970 157 C972.2 161.85 973.85 166.64 975.25 171.77 C975.97 174.24 975.97 174.24 978 177 C978.61 179.79 979.01 182.58 979.44 185.41 C979.88 188.22 979.88 188.22 982 191 C982.52 194.18 982.88 197.34 983.21 200.55 C983.62 204.09 983.98 205.98 986 209 C986.18 211.01 986.18 211.01 986.09 213.27 C986.07 214.1 986.05 214.92 986.03 215.77 C985.97 217.5 985.9 219.23 985.83 220.95 C985.72 226.03 986.09 228.7 989 233 C989.29 235.68 989.29 235.68 989.19 238.31 C989.16 239.2 989.13 240.08 989.11 240.99 C989.07 241.65 989.04 242.32 989 243 C988.34 243.33 987.68 243.66 987 244 C986.88 244.64 986.76 245.27 986.64 245.93 C986 248 986 248 984.11 249.23 C982.94 249.7 982.94 249.7 981.75 250.19 C980.98 250.51 980.21 250.83 979.42 251.17 C974.71 252.79 970.35 253.13 965.38 253.16 C964.73 253.16 964.08 253.17 963.41 253.17 C961.23 253.19 959.04 253.2 956.86 253.21 C955.29 253.21 953.72 253.22 952.15 253.24 C947.87 253.26 943.58 253.28 939.3 253.3 C934.74 253.33 930.19 253.35 925.63 253.38 C917.91 253.42 910.19 253.46 902.46 253.5 C894.69 253.54 886.92 253.58 879.14 253.63 C878.2 253.63 877.26 253.64 876.29 253.64 C874.89 253.65 874.89 253.65 873.45 253.66 C852.01 253.78 830.56 253.89 809.11 253.97 C802.81 253.99 796.51 254.02 790.21 254.05 C782.56 254.09 774.9 254.11 767.25 254.13 C763.34 254.14 759.43 254.16 755.51 254.18 C751.93 254.2 748.34 254.2 744.75 254.21 C742.83 254.21 740.91 254.22 738.99 254.24 C737.85 254.24 736.72 254.24 735.55 254.23 C734.57 254.24 733.59 254.24 732.57 254.24 C729.91 253.99 728.28 253.36 726 252 C725.67 252.33 725.34 252.66 725 253 C725.99 253.33 726.98 253.66 728 254 C726.86 254.02 725.71 254.04 724.53 254.06 C720.26 254.14 715.99 254.23 711.72 254.32 C709.88 254.36 708.03 254.39 706.19 254.42 C703.53 254.47 700.87 254.53 698.21 254.59 C696.99 254.6 696.99 254.6 695.74 254.62 C692.04 254.72 689.02 254.99 685.44 256.02 C681.48 257.15 677.86 257.22 673.79 257.12 C672.64 257.11 672.64 257.11 671.47 257.1 C668.23 257.07 664.99 257.01 661.75 256.96 C645.7 256.4 645.7 256.4 631 262 C629.06 262.52 627.11 263.03 625.15 263.48 C622.22 264.19 619.41 265.17 616.56 266.14 C609.11 268.64 601.57 270.88 594 273 C592.93 273.33 591.86 273.66 590.75 274 C586.74 275.07 582.75 275.78 578.65 276.44 C576 276.91 576 276.91 573.63 278 C570.29 279.27 567.11 279.6 563.56 280 C558.31 280.58 558.31 280.58 553.25 282 C547.47 283.78 541.41 283.8 535.41 284.21 C530.24 284.6 525.92 285.29 521 287 C518.21 287.36 515.43 287.5 512.62 287.62 C511.89 287.66 511.15 287.7 510.39 287.74 C508.6 287.84 506.8 287.92 505 288 C504.88 288.77 504.77 289.55 504.64 290.34 C503.75 294.01 501.73 295.46 499 298 C497.66 299.66 496.32 301.32 495 303 C494.52 303.46 494.05 303.91 493.56 304.38 C491.8 306.21 490.54 308.11 489.19 310.25 C484.74 316.99 480.66 322.88 473 326 C465.44 327.29 459.23 322.59 453.32 318.48 C447.02 313.89 442.02 308.69 438 302 C437.16 300.82 437.16 300.82 436.31 299.62 C434.53 296.06 434.34 292.96 434 289 C433.34 289 432.68 289 432 289 C432 289.66 432 290.32 432 291 C431.05 291.25 430.1 291.49 429.12 291.75 C425.94 292.61 425.94 292.61 425.2 294.73 C423.43 298.08 420.62 300.18 417.75 302.56 C417.13 303.09 416.51 303.61 415.87 304.15 C405.89 312.51 395.61 320.46 385 328 C384.17 328.59 383.34 329.19 382.48 329.8 C371.5 337.59 360.08 345.2 347.93 351.06 C346.6 351.71 345.28 352.38 343.97 353.06 C339.72 355.28 335.65 356.72 331 358 C330.01 358.66 329.02 359.32 328 360 C325.88 360.56 325.88 360.56 323.56 361 C321.2 361.45 319.3 361.83 317.19 363 C314.06 364.43 310.83 364.69 307.44 365.06 C302.15 365.66 302.15 365.66 297 367 C295.6 367.1 294.19 367.15 292.78 367.16 C291.93 367.17 291.08 367.18 290.21 367.19 C289.29 367.19 288.37 367.2 287.43 367.2 C286.47 367.21 285.51 367.21 284.53 367.22 C282.49 367.23 280.46 367.24 278.43 367.24 C275.37 367.25 272.31 367.28 269.26 367.31 C242.07 367.46 242.07 367.46 230 361 C227.67 359.98 225.34 358.99 223 358 C221.69 357.44 220.37 356.88 219.06 356.31 C218.05 355.88 217.04 355.45 216 355 C216 354.34 216 353.68 216 353 C215.32 352.81 214.64 352.63 213.94 352.44 C209.78 350.4 207.09 347.38 204 344 C203.28 343.22 202.56 342.43 201.81 341.62 C196.01 333.23 194.82 325.16 194.81 315.19 C194.8 314.32 194.79 313.46 194.78 312.57 C194.76 305.26 196.21 299.05 198.56 292.12 C198.81 291.39 199.06 290.65 199.32 289.88 C200 288 200 288 201 286 C201.66 286 202.32 286 203 286 C203.33 284.02 203.66 282.04 204 280 C202.68 279.34 201.36 278.68 200 278 C199.32 278.64 198.64 279.27 197.94 279.93 C194.47 282.37 192.19 282.7 188 283.12 C183.67 283.58 179.91 284 176 286 C175.35 288.02 175.35 288.02 175 290 C174.01 290.33 173.02 290.66 172 291 C170.94 292.85 170.94 292.85 170 295 C169.07 296.31 168.11 297.6 167.12 298.88 C164.01 302.97 161.02 307.01 158.67 311.61 C152.69 323.29 152.69 323.29 147 326 C142.04 327.09 137.9 326.91 133.29 324.71 C131.02 323.26 128.95 321.86 127 320 C127 319.34 127 318.68 127 318 C126.36 317.9 125.72 317.79 125.06 317.69 C124.38 317.46 123.7 317.23 123 317 C122.67 316.01 122.34 315.02 122 314 C120 312.79 120 312.79 118 312 C118 311.34 118 310.68 118 310 C117.15 309.68 117.15 309.68 116.28 309.36 C109.59 305.38 104.54 295.81 101 289 C100.63 288.3 100.26 287.59 99.88 286.87 C97 281.3 97 281.3 97 279 C96.09 278.88 95.19 278.75 94.25 278.62 C91 278 91 278 89.07 277.02 C86.91 275.95 85.05 275.5 82.69 275.06 C79.28 274.35 76.26 273.39 73.09 271.92 C69.13 270.18 65.04 268.77 60.99 267.28 C58.25 266.11 56.32 264.84 54 263 C52.4 262.34 50.81 261.67 49.21 261.02 C44.28 258.75 39.45 256.09 35 253 C34.67 252.01 34.34 251.02 34 250 C33.26 249.71 32.51 249.42 31.75 249.12 C28.31 247.72 26.43 245.78 24 243 C24 242.34 24 241.68 24 241 C22.68 240.67 21.36 240.34 20 240 C20 239.01 20 238.02 20 237 C18.68 236.67 17.36 236.34 16 236 C16 235.01 16 234.02 16 233 C15.11 232.62 15.11 232.62 14.21 232.22 C7.64 228.59 2.17 220.12 -2 214 C-2 213.34 -2 212.68 -2 212 C-2.99 211.67 -3.98 211.34 -5 211 C-6.07 209.38 -7.05 207.69 -8 206 C-9.55 203.68 -11.12 201.38 -12.7 199.09 C-14 197 -14 197 -15 194 C-15.45 193.57 -15.91 193.13 -16.38 192.69 C-20.16 188.76 -23 182.45 -23 177 C-23.66 177 -24.32 177 -25 177 C-25.29 175.95 -25.29 175.95 -25.59 174.88 C-25.85 173.97 -26.11 173.06 -26.38 172.12 C-26.63 171.22 -26.89 170.32 -27.15 169.38 C-27.86 166.85 -27.86 166.85 -30 165 C-30.57 162.96 -31.06 160.89 -31.5 158.81 C-32.23 155.4 -32.98 152.07 -34.01 148.73 C-37.26 136.5 -36.16 122.61 -36.13 110.04 C-36.13 107.2 -36.13 104.37 -36.14 101.53 C-36.14 92.53 -36.02 83.54 -35.55 74.55 C-35.52 73.79 -35.48 73.03 -35.44 72.24 C-34.72 59.72 -34.72 59.72 -32 57 C-31.59 55.03 -31.27 53.05 -31 51.06 C-30.48 47.21 -30.19 45.28 -28 42 C-27.44 39.89 -26.95 37.76 -26.5 35.62 C-25.64 31.54 -24.62 27.84 -23 24 C-22.69 22.91 -22.38 21.81 -22.06 20.69 C-17.46 4.72 -17.46 4.72 -13.12 1.69 C-8.65 0.24 -4.69 -0.04 0 0 Z " fill="#674F2E" transform="translate(162,827)"/>
<path d="M0 0 C1.57 2 2.77 3.8 4 6 C4.51 6.89 4.51 6.89 5.03 7.8 C6.09 9.69 7.11 11.59 8.12 13.5 C8.47 14.14 8.82 14.78 9.18 15.43 C15.67 27.6 16.32 40.66 13 54 C9.69 62.72 4.59 70.41 -2 77 C-7.73 77.59 -11.2 75.64 -16.12 73 C-23.98 70.28 -33.59 75.06 -41 78 C-47.72 81.29 -50.97 86.24 -53.98 93 C-56.39 100.1 -54.25 104.87 -51.19 111.5 C-47.79 118.26 -43.41 124.32 -38.82 130.31 C-38.32 131 -37.81 131.68 -37.28 132.38 C-36.82 132.98 -36.35 133.59 -35.88 134.21 C-35 136 -35 136 -35.22 138.07 C-36.47 141.15 -38.7 143.01 -41.06 145.31 C-41.56 145.8 -42.07 146.29 -42.58 146.8 C-46.6 150.68 -50.74 154.38 -55 158 C-56.06 158.92 -57.12 159.85 -58.18 160.78 C-64.67 166.42 -71.25 171.75 -78.19 176.84 C-81.02 179.02 -83.63 181.33 -86.25 183.75 C-94.42 191.23 -102.27 195.67 -113.59 195.3 C-123.84 194.02 -130.44 188.59 -138 182 C-140.44 180 -142.91 178.03 -145.38 176.06 C-146.33 175.3 -146.33 175.3 -147.31 174.51 C-150.84 171.69 -154.41 168.92 -158.02 166.21 C-173.86 154.27 -190.32 139.7 -196 120 C-195.73 115.01 -192.99 111.88 -190.06 108.06 C-183.12 99 -182.22 91.43 -183 80 C-184.07 74.46 -186.49 70.46 -191 67 C-196.06 65.07 -200.2 66.75 -205.12 68.41 C-208.87 69.18 -211.32 69.1 -215 68 C-216.7 65.66 -217.72 63.92 -218.81 61.31 C-219.1 60.7 -219.38 60.09 -219.68 59.46 C-224.61 48.67 -225.06 38.43 -225.25 26.75 C-225.27 26.01 -225.29 25.26 -225.31 24.5 C-225.35 17.83 -223.74 12.04 -219.75 6.62 C-216.68 3.69 -214.26 2.05 -210 2 C-206.27 3.32 -202.97 5.32 -199.56 7.31 C-184.87 15.44 -169.51 21.31 -153.38 25.94 C-152.4 26.22 -152.4 26.22 -151.41 26.51 C-139.34 29.74 -127.17 30.37 -114.75 30.37 C-112.33 30.37 -109.91 30.41 -107.49 30.45 C-87.23 30.61 -68.83 24.71 -49.62 18.71 C-45.92 17.56 -42.21 16.42 -38.5 15.29 C-36.11 14.55 -33.73 13.81 -31.34 13.07 C-30.25 12.73 -29.16 12.4 -28.03 12.06 C-20.23 9.6 -12.56 6.86 -6.12 1.69 C-4 0 -4 0 0 0 Z " fill="#39281A" transform="translate(522,702)"/>
<path d="M0 0 C2.61 1.21 4.94 2.7 7.31 4.31 C7.94 4.72 8.58 5.12 9.23 5.54 C13.86 8.59 13.86 8.59 15 12 C15.99 12.49 15.99 12.49 17 13 C16.15 13.75 15.31 14.5 14.44 15.27 C-1.72 29.77 -11.48 45.76 -19 66 C-19.4 66.92 -19.81 67.85 -20.22 68.8 C-20.48 69.53 -20.74 70.25 -21 71 C-20.67 71.66 -20.34 72.32 -20 73 C-20.99 73.49 -20.99 73.49 -22 74 C-22.55 77.02 -23 79.93 -23 83 C-22.77 82.39 -22.54 81.79 -22.3 81.17 C-13.78 59.29 -1.44 39.74 15 23 C16.22 21.76 16.22 21.76 17.46 20.49 C19.3 18.64 21.14 16.81 23 15 C23.5 15.99 23.5 15.99 24 17 C24.86 17.13 25.71 17.26 26.6 17.39 C30.66 18.12 33.85 19.81 37.44 21.75 C44.42 25.37 51.4 28.11 58.94 30.38 C61.15 31.04 63.35 31.73 65.54 32.43 C81.98 37.54 98.67 41.73 115.5 45.31 C116.25 45.47 116.99 45.63 117.76 45.8 C121.33 46.53 124.78 47.07 128.41 47.36 C132 48 132 48 133.5 50.06 C133.66 50.7 133.83 51.34 134 52 C133.01 52.74 132.01 53.48 130.99 54.24 C124.33 59.21 117.7 64.2 111.19 69.38 C69.3 102.41 24.87 127.33 -30.18 121.05 C-45.46 119.03 -61.04 113.59 -71.63 101.82 C-78.26 93.01 -77.98 83.54 -76.6 72.89 C-72.6 53.52 -57.47 33.12 -41.23 22.13 C-39 21 -39 21 -37 21 C-37 20.34 -37 19.68 -37 19 C-35.02 17.57 -35.02 17.57 -32.25 15.92 C-31.25 15.32 -30.25 14.71 -29.21 14.09 C-28.15 13.46 -27.09 12.83 -26 12.19 C-23.94 10.95 -21.87 9.72 -19.81 8.48 C-18.82 7.89 -17.82 7.3 -16.79 6.69 C-14.35 5.21 -11.99 3.65 -9.62 2.05 C-6.24 -0.04 -4.03 -0.79 0 0 Z " fill="#F99495" transform="translate(446,1059)"/>
<path d="M0 0 C9.57 -0.24 19.04 0.48 28.56 1.25 C29.39 1.32 30.21 1.38 31.06 1.45 C98.61 6.87 98.61 6.87 113 15 C114.16 17.1 114.16 17.1 115 19 C116.49 19.5 116.49 19.5 118 20 C119.02 71.32 119.02 71.32 113 95 C112.52 97.08 112.05 99.16 111.58 101.25 C100.88 147.58 81.18 172.1 42 198 C41.74 191.77 42.76 185.99 43.88 179.88 C45.72 169.32 46.97 158.81 47.82 148.14 C47.97 146.38 48.15 144.62 48.34 142.87 C51.34 114.66 49.3 82.63 39 56 C38.74 55.25 38.48 54.5 38.21 53.73 C32.97 39.38 25.16 22.55 13 13 C13 12.34 13 11.68 13 11 C12.34 10.79 11.68 10.59 11 10.38 C6.95 8.52 3.2 6.12 0 3 C0 2.01 0 1.02 0 0 Z " fill="#442F1F" transform="translate(822,811)"/>
<path d="M0 0 C1.06 0.02 1.06 0.02 2.14 0.05 C4.12 0.09 6.09 0.15 8.07 0.21 C9.16 0.24 10.25 0.27 11.38 0.31 C14.44 0.62 14.44 0.62 17.31 1.62 C21.22 2.88 24.82 3.04 28.91 3.19 C29.7 3.22 30.5 3.26 31.33 3.3 C33.86 3.42 36.4 3.52 38.94 3.62 C42.28 3.76 45.63 3.91 48.97 4.06 C50.11 4.1 50.11 4.1 51.27 4.14 C55.69 4.35 59.24 5.13 63.44 6.62 C66.05 7.02 66.05 7.02 68.67 7.15 C69.64 7.22 70.61 7.29 71.6 7.37 C73.6 7.5 75.59 7.62 77.59 7.75 C83.62 8.19 89.04 9.22 94.84 10.93 C98.65 11.95 102.45 12.34 106.38 12.69 C110.81 13.08 114.45 13.56 118.44 15.62 C120.76 16.02 123.1 16.35 125.44 16.62 C132.02 17.41 132.02 17.41 134.36 18.63 C138.2 20.47 142.68 20.39 146.89 20.75 C151.48 21.2 155.32 22.19 159.6 23.93 C162.09 24.87 164.56 25.3 167.19 25.69 C170.72 26.22 173.27 27.03 176.44 28.62 C178.98 29.2 181.53 29.63 184.1 30.06 C186.44 30.62 186.44 30.62 189.44 32.62 C191.74 33.22 194.04 33.63 196.38 34.06 C198.44 34.62 198.44 34.62 200.44 36.62 C202.47 37.19 202.47 37.19 204.75 37.56 C208.56 38.33 211.14 39.54 214.44 41.62 C216.77 42.3 219.1 42.96 221.44 43.62 C222.1 44.28 222.76 44.95 223.44 45.62 C224.96 46.22 226.5 46.76 228.06 47.25 C228.88 47.51 229.7 47.77 230.54 48.04 C231.17 48.23 231.79 48.43 232.44 48.62 C232.44 49.28 232.44 49.95 232.44 50.62 C233.55 50.77 234.66 50.91 235.81 51.06 C239.44 51.62 239.44 51.62 241.44 52.62 C241.44 53.28 241.44 53.95 241.44 54.62 C242.51 54.73 243.58 54.83 244.69 54.94 C248.47 55.63 249.6 56.25 252.44 58.62 C254.43 59.64 256.43 60.64 258.44 61.62 C268.15 66.75 268.15 66.75 272.38 69.62 C276.23 72.14 280.28 74.09 284.41 76.11 C287.78 77.79 291.05 79.61 294.32 81.46 C297.64 83.29 301.04 84.95 304.44 86.62 C304.44 87.28 304.44 87.94 304.44 88.62 C305.41 88.83 306.38 89.04 307.38 89.25 C311.51 90.42 314.61 92.59 318.1 95.04 C320.4 96.6 322.74 97.94 325.19 99.25 C328.58 101.09 331.47 103.15 334.44 105.62 C336.09 106.64 337.76 107.64 339.44 108.62 C341.44 109.95 343.44 111.29 345.44 112.62 C346.85 113.56 346.85 113.56 348.3 114.52 C353.93 118.26 359.52 122.05 365.04 125.96 C368.22 128.17 371.46 130.27 374.72 132.36 C376.44 133.62 376.44 133.62 377.44 135.62 C379.1 136.63 380.77 137.63 382.44 138.62 C386.78 141.69 390.68 144.87 394.44 148.62 C396.57 149.86 396.57 149.86 398.44 150.62 C398.44 151.28 398.44 151.94 398.44 152.62 C400.91 153.62 400.91 153.62 403.44 154.62 C403.44 155.28 403.44 155.94 403.44 156.62 C404.21 156.97 404.21 156.97 405 157.31 C410.58 160.32 415.02 164.1 419.44 168.62 C421.83 170.72 424.23 172.79 426.64 174.86 C427.24 175.44 427.83 176.02 428.44 176.62 C428.44 177.28 428.44 177.94 428.44 178.62 C429.03 178.72 429.63 178.82 430.25 178.91 C432.91 179.78 433.78 180.82 435.5 183 C436.98 184.85 438.4 186.59 440.12 188.23 C441.44 189.62 441.44 189.62 441.44 191.62 C442.76 192.28 444.08 192.94 445.44 193.62 C445.44 194.28 445.44 194.94 445.44 195.62 C446.02 195.88 446.61 196.13 447.21 196.38 C449.73 197.79 451.19 199.31 453.06 201.5 C453.65 202.18 454.24 202.86 454.85 203.55 C456.44 205.63 456.44 205.63 457.46 207.82 C458.36 209.98 458.36 209.98 461.44 210.62 C462.98 212.12 462.98 212.12 464.62 214.06 C465.54 215.13 465.54 215.13 466.46 216.22 C469.25 219.61 471.96 223.06 474.64 226.52 C476.44 228.83 476.44 228.83 479.44 230.62 C479.77 231.62 480.1 232.61 480.44 233.62 C481.12 234.31 481.8 234.99 482.5 235.69 C483.46 236.65 483.46 236.65 484.44 237.62 C484.44 238.28 484.44 238.94 484.44 239.62 C485.43 239.96 486.42 240.28 487.44 240.62 C488.12 242.69 488.12 242.69 488.44 244.62 C489.1 244.62 489.76 244.62 490.44 244.62 C491.95 246.38 491.95 246.38 493.56 248.62 C494.1 249.37 494.64 250.11 495.2 250.88 C495.61 251.45 496.02 252.03 496.44 252.62 C495.42 255.44 494.76 256.45 492.08 257.88 C484.74 260.13 484.74 260.13 481.47 258.86 C479.53 257.27 478.03 255.58 476.44 253.62 C475.71 252.77 474.98 251.92 474.22 251.05 C470.88 247.07 467.69 243 464.62 238.81 C452.9 223.03 438.78 208.91 424.94 195 C423.99 194.04 423.99 194.04 423.02 193.06 C416.34 186.41 409.21 180.35 401.88 174.44 C401.18 173.88 400.49 173.32 399.78 172.74 C398.35 171.59 396.93 170.44 395.5 169.29 C393.59 167.75 391.68 166.2 389.77 164.64 C382.82 159.02 375.77 153.56 368.62 148.19 C367.88 147.63 367.14 147.07 366.37 146.49 C363.73 144.52 361.09 142.57 358.44 140.62 C357.81 140.16 357.18 139.7 356.54 139.23 C345.84 131.38 334.98 123.84 323.89 116.57 C321.5 115 319.12 113.42 316.74 111.84 C301.69 101.92 286.15 92.93 270.25 84.44 C269.14 83.84 268.03 83.25 266.89 82.64 C259.11 78.48 251.3 74.4 243.35 70.56 C241.34 69.58 239.34 68.57 237.34 67.57 C199.34 48.75 157.8 35.93 116 29.25 C115.33 29.14 114.66 29.03 113.97 28.92 C79.62 23.22 79.62 23.22 44.99 20.02 C40.61 19.79 36.28 19.43 31.93 18.96 C3.64 15.91 -24.56 15.32 -52.98 15.43 C-56.53 15.44 -60.07 15.44 -63.62 15.44 C-67.97 15.44 -72.31 15.45 -76.66 15.46 C-77.91 15.46 -77.91 15.46 -79.19 15.46 C-90.33 15.49 -101.43 15.68 -112.54 16.63 C-118.2 17.01 -121 16.37 -125.56 12.62 C-132.45 10.02 -140.29 10.05 -147.56 9.62 C-147.56 9.29 -147.56 8.97 -147.56 8.62 C-142.94 8.29 -138.32 7.97 -133.56 7.62 C-133.56 6.97 -133.56 6.3 -133.56 5.62 C-123.67 4.43 -113.84 3.37 -103.87 3.05 C-99.77 3 -99.77 3 -96.56 0.62 C-94.33 0.31 -94.33 0.31 -91.46 0.21 C-90.35 0.17 -89.25 0.13 -88.11 0.09 C-86.26 0.05 -86.26 0.05 -84.38 0 C-83.07 -0.04 -81.77 -0.07 -80.42 -0.11 C-53.63 -0.81 -26.79 -0.68 0 0 Z " fill="#00184D" transform="translate(592.5625,643.375)"/>
<path d="M0 0 C1.02 1.58 1.02 1.58 0.93 4.03 C-1.93 12.03 -11.29 16.13 -18.52 19.58 C-19.95 20.25 -21.4 20.92 -22.84 21.58 C-24.9 22.54 -26.93 23.55 -28.96 24.58 C-42.91 31.42 -57.95 34.98 -72.98 38.58 C-73.68 38.75 -74.37 38.93 -75.09 39.11 C-91.99 43.19 -107.23 39.89 -123.42 34.58 C-125.33 33.97 -127.23 33.37 -129.14 32.77 C-146.74 27.19 -163.81 21.16 -180.16 12.53 C-183.41 10.83 -186.7 9.21 -189.98 7.58 C-189.98 6.59 -189.98 5.6 -189.98 4.58 C-187.27 2.19 -184.05 0.47 -180.98 -1.42 C-180.15 -1.99 -179.31 -2.57 -178.45 -3.16 C-169.05 -9.26 -158.78 -11.8 -147.98 -14.42 C-146.57 -14.77 -146.57 -14.77 -145.12 -15.12 C-100.59 -25.68 -39.4 -28.23 0 0 Z " fill="#645549" transform="translate(503.984375,688.421875)"/>
<path d="M0 0 C-0.5 1.21 -0.99 2.42 -1.5 3.67 C-6.04 14.83 -10.38 26.04 -14.17 37.48 C-14.72 39.15 -15.28 40.82 -15.85 42.49 C-29.68 83.19 -27.51 138 -9 177.12 C-1 192.99 9.84 207.26 21.64 220.47 C22.89 221.88 24.13 223.31 25.37 224.74 C27.53 227.21 29.74 229.62 32 232 C32.73 232.8 33.47 233.59 34.23 234.41 C46.75 246.94 64.3 254.67 81 260 C81.76 260.25 82.52 260.5 83.3 260.76 C126.65 274.9 175.48 276.92 218.11 258.52 C222.02 256.46 224.92 254.16 228 251 C228.66 251.33 229.32 251.66 230 252 C229.26 252.58 228.51 253.15 227.75 253.75 C225.03 255.87 225.03 255.87 223.06 258.12 C220.55 260.41 218.24 261.12 215 262 C215 262.66 215 263.32 215 264 C213.24 265.26 213.24 265.26 210.88 266.69 C207.05 269.14 204.26 271.62 201.48 275.19 C196.13 281.71 196.13 281.71 191.62 282.86 C190.43 282.97 189.23 283.07 188 283.19 C183.66 283.61 179.92 283.99 176 286 C175.35 288.02 175.35 288.02 175 290 C174.01 290.33 173.02 290.66 172 291 C170.94 292.85 170.94 292.85 170 295 C169.07 296.31 168.11 297.6 167.12 298.88 C164.01 302.97 161.02 307.01 158.67 311.61 C152.69 323.29 152.69 323.29 147 326 C142.04 327.09 137.9 326.91 133.29 324.71 C131.02 323.26 128.95 321.86 127 320 C127 319.34 127 318.68 127 318 C126.36 317.9 125.72 317.79 125.06 317.69 C124.38 317.46 123.7 317.23 123 317 C122.67 316.01 122.34 315.02 122 314 C120 312.79 120 312.79 118 312 C118 311.34 118 310.68 118 310 C117.15 309.68 117.15 309.68 116.28 309.36 C109.59 305.38 104.54 295.81 101 289 C100.63 288.3 100.26 287.59 99.88 286.87 C97 281.3 97 281.3 97 279 C96.09 278.88 95.19 278.75 94.25 278.62 C91 278 91 278 89.07 277.02 C86.91 275.95 85.05 275.5 82.69 275.06 C79.28 274.35 76.26 273.39 73.09 271.92 C69.13 270.18 65.04 268.77 60.99 267.28 C58.25 266.11 56.32 264.84 54 263 C52.4 262.34 50.81 261.67 49.21 261.02 C44.28 258.75 39.45 256.09 35 253 C34.67 252.01 34.34 251.02 34 250 C33.26 249.71 32.51 249.42 31.75 249.12 C28.31 247.72 26.43 245.78 24 243 C24 242.34 24 241.68 24 241 C22.68 240.67 21.36 240.34 20 240 C20 239.01 20 238.02 20 237 C18.68 236.67 17.36 236.34 16 236 C16 235.01 16 234.02 16 233 C15.11 232.62 15.11 232.62 14.21 232.22 C7.64 228.59 2.17 220.12 -2 214 C-2 213.34 -2 212.68 -2 212 C-2.99 211.67 -3.98 211.34 -5 211 C-6.07 209.38 -7.05 207.69 -8 206 C-9.55 203.68 -11.12 201.38 -12.7 199.09 C-14 197 -14 197 -15 194 C-15.45 193.57 -15.91 193.13 -16.38 192.69 C-20.16 188.76 -23 182.45 -23 177 C-23.66 177 -24.32 177 -25 177 C-25.29 175.95 -25.29 175.95 -25.59 174.88 C-25.85 173.97 -26.11 173.06 -26.38 172.12 C-26.63 171.22 -26.89 170.32 -27.15 169.38 C-27.86 166.85 -27.86 166.85 -30 165 C-30.57 162.96 -31.06 160.89 -31.5 158.81 C-32.23 155.4 -32.98 152.07 -34.01 148.73 C-37.26 136.5 -36.16 122.61 -36.13 110.04 C-36.13 107.2 -36.13 104.37 -36.14 101.53 C-36.14 92.53 -36.02 83.54 -35.55 74.55 C-35.52 73.79 -35.48 73.03 -35.44 72.24 C-34.72 59.72 -34.72 59.72 -32 57 C-31.59 55.03 -31.27 53.05 -31 51.06 C-30.48 47.21 -30.19 45.28 -28 42 C-27.44 39.89 -26.95 37.76 -26.5 35.62 C-25.64 31.54 -24.62 27.84 -23 24 C-22.69 22.91 -22.38 21.81 -22.06 20.69 C-17.46 4.72 -17.46 4.72 -13.12 1.69 C-8.65 0.24 -4.69 -0.04 0 0 Z " fill="#674F2E" transform="translate(162,827)"/>
<path d="M0 0 C-0.42 1.01 -0.42 1.01 -0.84 2.05 C-1.2 2.94 -1.56 3.83 -1.94 4.75 C-2.3 5.63 -2.66 6.51 -3.03 7.42 C-4.8 12.13 -5.17 16.35 -5.2 21.37 C-5.21 22.09 -5.21 22.81 -5.22 23.55 C-5.23 25.07 -5.24 26.59 -5.24 28.11 C-5.25 30.4 -5.28 32.68 -5.31 34.97 C-5.41 48.23 -3.38 59.29 2.99 71.03 C4 74 4 74 3.44 77.14 C-4.44 92.77 -35.42 99.82 -50.59 104.9 C-72.25 111.87 -94.44 116.99 -116.75 121.38 C-117.65 121.56 -118.55 121.74 -119.48 121.92 C-120.31 122.08 -121.13 122.24 -121.98 122.4 C-123.08 122.61 -123.08 122.61 -124.19 122.83 C-126 123 -126 123 -128 122 C-125.75 105.63 -109.02 87.59 -98.39 75.58 C-97.41 74.46 -96.43 73.33 -95.46 72.2 C-90.63 66.58 -85.49 61.3 -80.25 56.06 C-79.36 55.18 -78.48 54.29 -77.56 53.38 C-71.63 47.5 -65.62 42.09 -59 37 C-57.29 35.56 -55.58 34.13 -53.88 32.69 C-40.75 21.98 -26.44 12.82 -12 4 C-11.36 3.59 -10.72 3.19 -10.07 2.77 C-6.58 0.62 -4.13 -0.5 0 0 Z " fill="#44A4C3" transform="translate(293,701)"/>
<path d="M0 0 C-2.62 2.65 -5.26 5.26 -7.98 7.8 C-23.44 22.48 -35.68 40.64 -36.38 62.5 C-36.23 70.82 -34.58 76.43 -29 82.62 C-12.8 97.42 10.14 100.6 31.26 100.18 C46.08 99.46 59.79 97.27 74 93 C75.09 92.69 76.17 92.38 77.29 92.07 C104.28 83.87 128.72 65.37 150.22 47.7 C154.65 44.06 159.13 40.52 163.75 37.12 C164.32 36.69 164.9 36.25 165.49 35.81 C169.38 32.99 169.38 32.99 172.12 33.02 C174.49 34.26 176.28 35.76 178.25 37.56 C178.96 38.2 179.66 38.84 180.39 39.5 C181.19 40.24 181.19 40.24 182 41 C178.55 45.41 175.02 48.82 170.56 52.19 C169.32 53.15 168.07 54.11 166.82 55.07 C165.87 55.79 165.87 55.79 164.9 56.54 C162.46 58.41 160.04 60.33 157.63 62.24 C146.44 71.09 135.11 79.44 123 87 C122.42 87.37 121.84 87.73 121.24 88.11 C114.96 92.07 108.71 95.82 102 99 C101.33 99.35 100.67 99.7 99.98 100.05 C95.73 102.28 91.65 103.72 87 105 C86.01 105.66 85.02 106.32 84 107 C81.88 107.56 81.88 107.56 79.56 108 C77.2 108.45 75.3 108.83 73.19 110 C70.06 111.43 66.83 111.69 63.44 112.06 C58.15 112.66 58.15 112.66 53 114 C51.6 114.1 50.19 114.15 48.78 114.16 C47.93 114.17 47.08 114.18 46.21 114.19 C45.29 114.19 44.37 114.2 43.43 114.2 C42.47 114.21 41.51 114.21 40.53 114.22 C38.49 114.23 36.46 114.24 34.43 114.24 C31.37 114.25 28.31 114.28 25.26 114.31 C-1.93 114.46 -1.93 114.46 -14 108 C-16.33 106.98 -18.66 105.99 -21 105 C-22.31 104.44 -23.63 103.88 -24.94 103.31 C-25.95 102.88 -26.96 102.45 -28 102 C-28 101.34 -28 100.68 -28 100 C-29.02 99.72 -29.02 99.72 -30.06 99.44 C-34.22 97.4 -36.91 94.38 -40 91 C-40.72 90.22 -41.44 89.43 -42.19 88.62 C-47.99 80.23 -49.18 72.16 -49.19 62.19 C-49.2 61.32 -49.21 60.46 -49.22 59.57 C-49.24 52.26 -47.79 46.05 -45.44 39.12 C-45.06 38.02 -45.06 38.02 -44.68 36.88 C-44 35 -44 35 -43 33 C-42.34 33 -41.68 33 -41 33 C-40.5 30.03 -40.5 30.03 -40 27 C-41.32 26.34 -42.64 25.68 -44 25 C-42.65 20.84 -40.91 18.61 -37.62 15.75 C-36.85 15.06 -36.08 14.38 -35.29 13.67 C-33.09 12.07 -31.66 11.41 -29 11 C-29 10.34 -29 9.68 -29 9 C-27 8 -25 7 -23 6 C-22.39 5.68 -21.77 5.35 -21.14 5.02 C-7.47 -2.11 -7.47 -2.11 0 0 Z " fill="#600203" transform="translate(406,1080)"/>
<path d="M0 0 C0.99 0.5 0.99 0.5 2 1 C0.95 1.64 -0.1 2.28 -1.19 2.94 C-13.85 10.87 -24.85 18.89 -34.12 30.74 C-36 33 -36 33 -38 34 C-38 33.34 -38 32.68 -38 32 C-38.99 32 -39.98 32 -41 32 C-41.33 32.66 -41.66 33.32 -42 34 C-43.65 34.7 -45.32 35.36 -47 36 C-67.63 46.65 -87.67 60.97 -104.63 76.8 C-106.62 78.64 -108.64 80.41 -110.69 82.18 C-122.35 92.35 -133.78 103.54 -143 116 C-143.39 116.53 -143.79 117.06 -144.2 117.6 C-153.27 129.82 -162.4 142.79 -168 157 C-170.81 159.81 -173.22 159.63 -177.12 160.12 C-178.41 160.29 -179.69 160.46 -181.01 160.63 C-182 160.75 -182.98 160.88 -184 161 C-183.25 156.25 -183.25 156.25 -181 154 C-180.27 152.09 -179.55 150.17 -178.86 148.24 C-177.5 144.69 -175.75 141.38 -174 138 C-173.34 138 -172.68 138 -172 138 C-171.77 136.99 -171.55 135.98 -171.31 134.94 C-170.07 130.54 -167.88 127.53 -165 124 C-164.34 124 -163.68 124 -163 124 C-162.92 123.28 -162.84 122.56 -162.75 121.81 C-161.68 117.81 -159.39 115.33 -156.44 112.5 C-154.88 110.99 -154.88 110.99 -153.7 108.77 C-151.82 105.7 -149.71 102.98 -147.44 100.19 C-146.65 99.21 -145.87 98.24 -145.06 97.23 C-144.38 96.49 -143.7 95.76 -143 95 C-142.34 95 -141.68 95 -141 95 C-140.77 94.44 -140.55 93.89 -140.31 93.31 C-138.63 90.34 -136.47 88.35 -134 86 C-133.22 85.22 -132.43 84.43 -131.62 83.62 C-130.76 82.76 -129.89 81.89 -129 81 C-128.48 80.46 -127.95 79.93 -127.41 79.38 C-123.76 75.67 -120 72.16 -116.05 68.78 C-114.62 67.54 -113.21 66.28 -111.82 65 C-111.12 64.36 -110.41 63.72 -109.69 63.06 C-109.05 62.48 -108.42 61.89 -107.76 61.29 C-106 60 -106 60 -103 60 C-102.81 59.44 -102.63 58.89 -102.44 58.31 C-100.36 54.97 -97.39 52.95 -94 51 C-93.34 51 -92.68 51 -92 51 C-92 50.34 -92 49.68 -92 49 C-89 47 -89 47 -86 47 C-85.67 46.01 -85.34 45.02 -85 44 C-82.75 42.5 -82.75 42.5 -80 41 C-79.11 40.44 -78.23 39.89 -77.31 39.31 C-75 38 -75 38 -73 38 C-73 37.34 -73 36.68 -73 36 C-72.11 35.57 -71.23 35.13 -70.31 34.69 C-67.45 33.23 -64.74 31.67 -62 30 C-60.28 29.01 -58.55 28.02 -56.82 27.04 C-55.62 26.36 -54.43 25.66 -53.24 24.96 C-46.86 21.21 -40.36 18.7 -33.23 16.75 C-30.76 16.03 -30.76 16.03 -28 14 C-26.48 13.66 -26.48 13.66 -24.94 13.31 C-21.49 12.4 -19.11 10.79 -16.25 8.69 C-11.22 5.01 -5.94 1.98 0 0 Z " fill="#00184D" transform="translate(332,668)"/>
<path d="M0 0 C2.38 2.55 3 3.44 3 7 C3.99 7.33 4.98 7.66 6 8 C7.28 9.67 7.28 9.67 8.5 11.75 C9.1 12.76 9.1 12.76 9.72 13.8 C10.35 14.89 10.35 14.89 11 16 C11.47 16.77 11.94 17.53 12.42 18.32 C14.31 21.52 16.07 24.78 17.81 28.06 C18.16 28.72 18.51 29.37 18.87 30.05 C23.2 38.23 27.51 46.42 31 55 C31.32 55.73 31.63 56.47 31.96 57.22 C34.32 62.81 35.89 68.35 37.29 74.24 C38.19 77.74 39.46 80.73 41 84 C43.2 88.85 44.85 93.64 46.25 98.77 C46.97 101.24 46.97 101.24 49 104 C49.61 106.79 50.01 109.58 50.44 112.41 C50.88 115.22 50.88 115.22 53 118 C53.52 121.18 53.88 124.34 54.21 127.55 C54.62 131.09 54.98 132.98 57 136 C56 139 56 139 55 140 C54.72 142.51 54.55 145.03 54.38 147.55 C54 150 54 150 52 153 C49.4 152.02 48.23 151.46 46.95 148.94 C46.7 148.09 46.44 147.23 46.18 146.36 C45.87 145.38 45.57 144.41 45.26 143.41 C44.95 142.35 44.64 141.28 44.31 140.19 C43.97 139.07 43.63 137.96 43.27 136.81 C42.17 133.21 41.08 129.61 40 126 C26.42 80.72 9.59 39.21 -19 1 C-16 1 -16 1 -14 2 C-11.45 1.33 -9 0.46 -6.51 -0.41 C-3.84 -1.04 -2.53 -1.01 0 0 Z " fill="#674F2E" transform="translate(1091,900)"/>
<path d="M0 0 C0 0.66 0 1.32 0 2 C1.98 2.66 3.96 3.32 6 4 C5.34 5.32 4.68 6.64 4 8 C3.34 8 2.68 8 2 8 C1.73 8.58 1.46 9.16 1.18 9.76 C-0 12 -1.32 13.87 -2.88 15.88 C-5.99 19.97 -8.98 24.01 -11.33 28.61 C-17.31 40.29 -17.31 40.29 -23 43 C-27.96 44.09 -32.1 43.91 -36.71 41.71 C-38.98 40.26 -41.05 38.86 -43 37 C-43 36.34 -43 35.68 -43 35 C-43.64 34.9 -44.28 34.79 -44.94 34.69 C-45.62 34.46 -46.3 34.23 -47 34 C-47.33 33.01 -47.66 32.02 -48 31 C-50 29.79 -50 29.79 -52 29 C-52 28.34 -52 27.68 -52 27 C-52.57 26.79 -53.13 26.57 -53.72 26.36 C-62.69 21.02 -68.78 7.21 -73 -2 C-73 -2.33 -73 -2.66 -73 -3 C-68.75 -3.87 -65.23 -4.05 -61 -3 C-56.46 0.41 -53.26 5.42 -50 10 C-46.3 14.91 -42.14 18.66 -37.31 22.44 C-36.74 22.89 -36.17 23.34 -35.58 23.8 C-32.18 26.44 -32.18 26.44 -28 27 C-27.43 25.95 -26.86 24.9 -26.28 23.82 C-25.5 22.4 -24.72 20.98 -23.94 19.56 C-23.57 18.87 -23.2 18.19 -22.81 17.48 C-19.72 11.89 -16.03 6.95 -12 2 C-12.71 1.95 -13.42 1.9 -14.15 1.85 C-51.85 -0.85 -51.85 -0.85 -55 -4 C-39.18 -10.44 -15.29 -7.65 0 0 Z " fill="#363939" transform="translate(332,1110)"/>
<path d="M0 0 C1.42 0.12 2.83 0.24 4.25 0.38 C5.04 0.44 5.83 0.51 6.64 0.59 C9.09 1.02 10.85 1.79 13 3 C12.58 7.89 10.51 9.73 7 13 C5.66 14.66 4.32 16.32 3 18 C2.52 18.46 2.05 18.91 1.56 19.38 C-0.2 21.21 -1.46 23.11 -2.81 25.25 C-7.26 31.99 -11.34 37.88 -19 41 C-26.56 42.29 -32.77 37.59 -38.68 33.48 C-44.98 28.89 -49.98 23.69 -54 17 C-54.87 15.7 -54.87 15.7 -55.75 14.38 C-57 12 -57 12 -57 8 C-53.04 7.01 -49.08 6.02 -45 5 C-44.44 5.91 -43.89 6.82 -43.31 7.75 C-41.08 10.89 -39.05 12.71 -36 15 C-35.38 15.64 -34.76 16.28 -34.12 16.94 C-32.32 18.69 -30.54 20.27 -28.56 21.81 C-27.73 22.47 -27.73 22.47 -26.88 23.14 C-24.97 24.16 -24.97 24.16 -22.56 24.05 C-18.83 22.52 -17.44 19.67 -15.5 16.31 C-7.87 3.49 -7.87 3.49 -2.69 2.12 C-1.36 2.06 -1.36 2.06 0 2 C0 1.34 0 0.68 0 0 Z " fill="#353839" transform="translate(654,1112)"/>
<path d="M0 0 C0.66 0.33 1.32 0.66 2 1 C2.21 10.19 1.55 19.06 0.5 28.19 C-2.24 53.93 -2.45 79.57 3 105 C3.16 105.76 3.32 106.53 3.49 107.32 C6.04 118.79 11.08 129.33 16.07 139.91 C16.59 141.03 17.11 142.15 17.65 143.3 C18.12 144.3 18.6 145.3 19.09 146.34 C20.05 149.14 20.07 150.29 19 153 C18.5 152.01 18.5 152.01 18 151 C17.01 150.67 16.02 150.34 15 150 C-6.74 127.19 -10.83 86.51 -10.16 56.82 C-10.11 55.21 -10.06 53.61 -10 52 C-9.98 51.25 -9.96 50.51 -9.94 49.74 C-9.43 33.04 -7.58 15.15 0 0 Z " fill="#060203" transform="translate(388,740)"/>
<path d="M0 0 C1.06 0.02 1.06 0.02 2.14 0.05 C4.12 0.09 6.09 0.15 8.07 0.21 C9.16 0.24 10.25 0.27 11.38 0.31 C14.44 0.62 14.44 0.62 17.3 1.62 C21.24 2.88 24.86 3.04 28.98 3.19 C29.78 3.22 30.58 3.26 31.41 3.3 C34.83 3.46 38.24 3.59 41.66 3.73 C44.16 3.83 46.66 3.95 49.16 4.06 C49.93 4.09 50.7 4.12 51.5 4.14 C55.35 4.32 58.08 4.77 61.44 6.62 C37.19 6.78 12.95 6.93 -11.29 7.07 C-22.55 7.13 -33.81 7.2 -45.06 7.27 C-54.88 7.34 -64.69 7.4 -74.5 7.45 C-79.7 7.48 -84.89 7.51 -90.09 7.55 C-94.98 7.58 -99.87 7.61 -104.76 7.63 C-106.55 7.64 -108.35 7.65 -110.14 7.67 C-112.59 7.69 -115.05 7.7 -117.5 7.71 C-118.21 7.71 -118.91 7.72 -119.64 7.73 C-124.37 7.74 -128.88 7.29 -133.56 6.62 C-133.56 6.29 -133.56 5.97 -133.56 5.62 C-123.67 4.43 -113.84 3.37 -103.87 3.05 C-99.77 3 -99.77 3 -96.56 0.62 C-94.33 0.31 -94.33 0.31 -91.46 0.21 C-90.35 0.17 -89.25 0.13 -88.11 0.09 C-86.26 0.05 -86.26 0.05 -84.38 0 C-83.07 -0.04 -81.77 -0.07 -80.42 -0.11 C-53.63 -0.81 -26.79 -0.68 0 0 Z " fill="#0C1646" transform="translate(592.5625,643.375)"/>
<path d="M0 0 C4.59 -0.08 8.9 0.18 13.44 0.88 C21.62 2.04 29.81 2.69 38.05 3.3 C39.55 3.42 39.55 3.42 41.08 3.54 C42.43 3.63 42.43 3.63 43.81 3.73 C46 4 46 4 48 5 C46.56 8.1 44.82 10.74 42.81 13.5 C38.82 19.12 35.39 25.01 32 31 C23.15 30.11 15.09 20.65 9.67 14.09 C9.12 13.4 8.57 12.71 8 12 C7.27 11.13 6.55 10.25 5.8 9.35 C0 2.29 0 2.29 0 0 Z " fill="#F8F9F8" transform="translate(272,1107)"/>
<path d="M0 0 C19.8 0.49 19.8 0.49 40 1 C40 1.66 40 2.32 40 3 C40.99 3 41.98 3 43 3 C43 3.66 43 4.32 43 5 C41.86 6.11 40.71 7.22 39.56 8.32 C36.27 11.86 33.72 16.01 31 20 C30.03 21.38 29.05 22.75 28.06 24.12 C27.38 25.07 26.7 26.02 26 27 C17.25 25.81 9.57 18.67 4.37 11.87 C0 5.72 0 5.72 0 0 Z " fill="#F8F9F7" transform="translate(607,1110)"/>
<path d="M0 0 C2.31 0.66 4.62 1.32 7 2 C7.04 2.82 7.04 2.82 7.09 3.65 C8.5 27.69 13.34 51.18 21 74 C21.22 74.66 21.44 75.32 21.67 76 C24.16 83.38 27 90.56 30.18 97.67 C30.45 98.44 30.72 99.21 31 100 C30.67 100.66 30.34 101.32 30 102 C8.11 77.37 -1.03 35.8 -1.13 3.93 C-1 2 -1 2 0 0 Z " fill="#68502F" transform="translate(401,907)"/>
<path d="M0 0 C0.92 0 1.84 0.01 2.79 0.01 C5.69 0.02 8.59 0.04 11.5 0.07 C13.48 0.08 15.46 0.09 17.44 0.1 C22.27 0.12 27.1 0.15 31.93 0.2 C30.46 3.92 30.46 3.92 28.15 5.14 C27.44 5.34 26.74 5.55 26.01 5.76 C25.23 6 24.45 6.24 23.65 6.48 C22.84 6.72 22.02 6.95 21.18 7.2 C15.43 8.89 10.76 10.58 5.93 14.2 C5.27 13.87 4.61 13.54 3.93 13.2 C3.93 13.86 3.93 14.52 3.93 15.2 C-2.33 16.38 -6.42 16.59 -11.96 13.29 C-18.39 9.94 -25.73 9.9 -32.82 10.01 C-33.68 10.01 -34.55 10.02 -35.44 10.03 C-42.35 10.11 -49.19 10.49 -56.07 11.2 C-53.45 8.58 -51.42 8.45 -47.82 7.7 C-44.5 6.99 -41.33 6.29 -38.13 5.16 C-34.54 4.03 -30.99 3.58 -27.25 3.2 C-23.06 2.75 -19.03 2.21 -14.94 1.17 C-9.92 0.04 -5.13 -0.06 0 0 Z " fill="#00174C" transform="translate(403.06640625,651.8046875)"/>
<path d="M0 0 C0.67 1.8 0.67 1.8 1 4 C-0.09 5.59 -0.09 5.59 -1.8 7.14 C-2.42 7.73 -3.04 8.32 -3.69 8.92 C-4.37 9.55 -5.05 10.17 -5.75 10.81 C-17.53 22.12 -25.95 34.93 -33.93 49.1 C-34.87 50.78 -35.84 52.44 -36.82 54.1 C-40.48 60.48 -42.91 66.95 -45 74 C-46.47 71.67 -47.1 70.54 -46.57 67.78 C-46.28 67.03 -45.99 66.28 -45.69 65.5 C-44.49 62.38 -44.49 62.38 -43.56 59.18 C-38.15 38.03 -25.22 12.91 -6 1.31 C-3 0 -3 0 0 0 Z " fill="#610203" transform="translate(468,1071)"/>
<path d="M0 0 C4.67 0.54 8.04 2.64 11.88 5.19 C12.5 5.6 13.12 6.01 13.76 6.44 C15.52 7.61 17.26 8.8 19 10 C19.71 10.49 20.42 10.97 21.15 11.47 C28.95 17.47 34.41 27 38 36 C37.4 36.06 36.79 36.12 36.17 36.18 C35.37 36.27 34.57 36.35 33.75 36.44 C32.96 36.52 32.17 36.6 31.36 36.68 C29.18 36.98 27.12 37.42 25 38 C22.79 34.41 20.85 30.75 18.94 27 C15.62 20.79 11.7 15.4 7.31 9.9 C4.75 6.68 2.36 3.38 0 0 Z " fill="#00174C" transform="translate(502,674)"/>
<path d="M0 0 C0 0.66 0 1.32 0 2 C0.99 2.33 1.98 2.66 3 3 C1.28 3.03 1.28 3.03 -0.47 3.06 C-4.74 3.14 -9.01 3.23 -13.28 3.32 C-15.12 3.36 -16.97 3.39 -18.81 3.42 C-21.47 3.47 -24.13 3.53 -26.79 3.59 C-27.6 3.6 -28.42 3.61 -29.26 3.62 C-34.16 3.75 -38.29 4.53 -43 6 C-45.48 6.13 -47.96 6.17 -50.44 6.12 C-52.29 6.1 -52.29 6.1 -54.18 6.07 C-55.58 6.04 -55.58 6.04 -57 6 C-57 5.34 -57 4.68 -57 4 C-55.1 3.52 -53.21 3.04 -51.31 2.56 C-50.26 2.3 -49.2 2.03 -48.11 1.75 C-43.63 0.67 -39.62 -0.13 -35 0 C-35 -0.66 -35 -1.32 -35 -2 C-21.2 -5.92 -13.26 -5.28 0 0 Z " fill="#011A4D" transform="translate(887,1078)"/>
<path d="M0 0 C0.33 0 0.66 0 1 0 C1.03 1.14 1.05 2.29 1.08 3.47 C1.17 7.74 1.27 12.01 1.37 16.28 C1.42 18.12 1.46 19.97 1.5 21.81 C1.56 24.47 1.62 27.13 1.68 29.79 C1.71 31.01 1.71 31.01 1.73 32.26 C1.85 36.92 2.24 41.4 3 46 C3.66 45.34 4.32 44.68 5 44 C5.05 48.86 5.09 53.71 5.11 58.57 C5.12 60.22 5.13 61.87 5.15 63.52 C5.18 65.9 5.19 68.28 5.2 70.66 C5.21 71.39 5.22 72.12 5.23 72.87 C5.23 77.61 4.49 81.49 3 86 C-3.23 73.96 -1.16 57.32 -1.13 44.04 C-1.13 41.2 -1.13 38.37 -1.14 35.53 C-1.14 23.66 -0.75 11.85 0 0 Z " fill="#583E22" transform="translate(127,893)"/>
<path d="M0 0 C2.49 3.73 2.24 5.65 2.23 10.1 C2.23 10.8 2.23 11.5 2.23 12.23 C2.23 14.51 2.21 16.78 2.19 19.06 C2.18 20.62 2.17 22.17 2.16 23.72 C2.11 31.82 2.02 39.91 1.62 48 C1.58 49.06 1.58 49.06 1.53 50.15 C1.25 54.75 1.25 54.75 -1 57 C-1.85 50.34 -2.16 43.84 -2.17 37.13 C-2.17 36.13 -2.17 35.12 -2.18 34.09 C-2.18 31.98 -2.19 29.88 -2.19 27.78 C-2.19 24.55 -2.21 21.32 -2.22 18.09 C-2.23 16.04 -2.23 13.99 -2.23 11.94 C-2.24 10.97 -2.24 10.01 -2.25 9.01 C-2.25 8.12 -2.25 7.23 -2.24 6.31 C-2.24 5.52 -2.25 4.74 -2.25 3.93 C-2 2 -2 2 0 0 Z " fill="#715939" transform="translate(130,884)"/>
<path d="M0 0 C1.49 0.99 1.49 0.99 3 2 C5.15 1.69 5.15 1.69 7 1 C7.28 1.89 7.56 2.77 7.85 3.68 C10.48 11.82 13.42 19.71 16.85 27.54 C17.62 29.34 18.32 31.17 19 33 C18.67 33.66 18.34 34.32 18 35 C11.35 27.52 7.15 19.02 3 10 C2.7 9.36 2.41 8.72 2.1 8.06 C0.81 5.19 0 3.18 0 0 Z " fill="#745C3C" transform="translate(413,974)"/>
<path d="M0 0 C0 0.66 0 1.32 0 2 C-0.72 1.69 -1.44 1.38 -2.19 1.06 C-4.83 0.07 -7.24 -0.47 -10 -1 C-11 -1.34 -12 -1.67 -13.03 -2.02 C-17.72 -3.37 -22.34 -3.29 -27.19 -3.25 C-28.52 -3.26 -28.52 -3.26 -29.88 -3.27 C-31.17 -3.27 -31.17 -3.27 -32.48 -3.27 C-33.64 -3.26 -33.64 -3.26 -34.82 -3.26 C-37.26 -2.97 -38.82 -2.11 -41 -1 C-46.26 -0.66 -50.05 -1.02 -55 -3 C-41.41 -12.06 -14.05 -7.02 0 0 Z " fill="#4F4537" transform="translate(332,1110)"/>
<path d="M0 0 C1.17 0.27 2.35 0.53 3.56 0.8 C12.99 3.03 12.99 3.03 15.62 6.25 C15.03 6.12 14.44 5.98 13.83 5.85 C9.77 4.94 5.71 4.04 1.62 3.25 C1.62 3.91 1.62 4.57 1.62 5.25 C-0.68 4.92 -3 4.59 -5.38 4.25 C-5.38 3.59 -5.38 2.93 -5.38 2.25 C-12.97 2.25 -20.55 2.25 -28.38 2.25 C-27.38 0.25 -27.38 0.25 -25.38 -0.81 C-16.32 -3.64 -9.03 -2.2 0 0 Z " fill="#514739" transform="translate(652.375,1108.75)"/>
<path d="M0 0 C0.33 0 0.66 0 1 0 C2.33 14.6 2.33 14.6 1 22 C0.34 22 -0.32 22 -1 22 C-1.33 22.66 -1.66 23.32 -2 24 C-1.01 24.33 -0.02 24.66 1 25 C0.67 26.32 0.34 27.64 0 29 C-1.32 29 -2.64 29 -4 29 C-7.17 23.85 -7.35 19.84 -7 14 C-5.02 14.99 -5.02 14.99 -3 16 C-2.01 10.72 -1.02 5.44 0 0 Z " fill="#735B3B" transform="translate(1146,1037)"/>
<path d="M0 0 C0.66 0.33 1.32 0.66 2 1 C-0.21 2.75 -2.41 4.5 -4.62 6.25 C-5.24 6.74 -5.86 7.23 -6.5 7.74 C-10.23 10.68 -14.01 13.42 -18 16 C-18.33 14.68 -18.66 13.36 -19 12 C-19.99 12.33 -20.98 12.66 -22 13 C-21 10 -21 10 -18.89 8.72 C-18.02 8.32 -17.15 7.91 -16.25 7.5 C-13.44 6.17 -10.78 4.87 -8.12 3.25 C-6.04 2.03 -4.35 1.49 -2 1 C-1.34 0.67 -0.68 0.34 0 0 Z " fill="#735B3B" transform="translate(874,1037)"/>
<path d="M0 0 C1.25 2.06 1.25 2.06 2 4 C0.99 4.18 0.99 4.18 -0.05 4.37 C-0.94 4.53 -1.83 4.7 -2.75 4.88 C-3.63 5.04 -4.51 5.2 -5.42 5.37 C-7.87 5.97 -9.81 6.78 -12 8 C-12 7.34 -12 6.68 -12 6 C-12.6 5.94 -13.2 5.88 -13.81 5.81 C-16.87 4.68 -17.55 2.83 -19 0 C-18.07 0.59 -18.07 0.59 -17.12 1.19 C-12.95 2.27 -10.38 1.09 -6.4 -0.37 C-3.74 -1.07 -2.5 -1.16 0 0 Z " fill="#4D4437" transform="translate(1091,900)"/>
<path d="M0 0 C0.66 0 1.32 0 2 0 C2 0.66 2 1.32 2 2 C3.32 1.67 4.64 1.34 6 1 C7.2 3.79 8.38 6.58 9.56 9.38 C9.9 10.17 10.25 10.96 10.6 11.78 C10.92 12.54 11.24 13.3 11.57 14.09 C12.01 15.14 12.01 15.14 12.47 16.21 C13 18 13 18 12 20 C0 5.68 0 5.68 0 0 Z " fill="#917D64" transform="translate(419,989)"/>
<path d="M0 0 C0 0.33 0 0.66 0 1 C-33.71 2.4 -33.71 2.4 -47 1 C-47 0.67 -47 0.34 -47 0 C-31.36 -1.65 -15.67 -0.65 0 0 Z " fill="#06244E" transform="translate(525,651)"/>
<path d="M0 0 C-0.33 0.66 -0.66 1.32 -1 2 C-11.23 2 -21.46 2 -32 2 C-32 1.67 -32 1.34 -32 1 C-21.06 -1.13 -11.04 -0.93 0 0 Z " fill="#062350" transform="translate(477,651)"/>
<path d="M0 0 C0.66 0 1.32 0 2 0 C1.34 1.32 0.68 2.64 0 4 C-0.99 4 -1.98 4 -3 4 C-1.62 2 -1.62 2 0 0 Z M-6 5 C-5.34 5 -4.68 5 -4 5 C-4.33 5.99 -4.66 6.98 -5 8 C-5.66 7.34 -6.32 6.68 -7 6 C-6.67 5.67 -6.34 5.34 -6 5 Z M-11 9 C-10.34 9 -9.68 9 -9 9 C-9.66 10.32 -10.32 11.64 -11 13 C-11.66 12.34 -12.32 11.68 -13 11 C-12.34 10.34 -11.68 9.68 -11 9 Z M-21 18 C-20.34 18 -19.68 18 -19 18 C-19.66 19.32 -20.32 20.64 -21 22 C-21.66 21.34 -22.32 20.68 -23 20 C-22.34 19.34 -21.68 18.68 -21 18 Z M-29 25 C-28.34 25 -27.68 25 -27 25 C-27.33 25.66 -27.66 26.32 -28 27 C-28.33 26.34 -28.66 25.68 -29 25 Z " fill="#6B5333" transform="translate(437,1040)"/>
<path d="M0 0 C0.99 0 1.98 0 3 0 C3.33 0.66 3.66 1.32 4 2 C6.13 2.47 6.13 2.47 8.56 2.62 C9.39 2.7 10.22 2.77 11.07 2.85 C11.7 2.9 12.34 2.95 13 3 C13 3.33 13 3.66 13 4 C9.29 4.34 5.58 4.67 1.88 5 C0.3 5.14 0.3 5.14 -1.3 5.29 C-6.21 5.72 -11.06 6.14 -16 6 C-13.33 3.33 -11.11 3.21 -7.44 2.44 C-3.4 1.89 -3.4 1.89 0 0 Z " fill="#000A3D" transform="translate(363,657)"/>
<path d="M0 0 C0.66 0 1.32 0 2 0 C2.06 3.62 2.09 7.25 2.12 10.88 C2.15 12.42 2.15 12.42 2.18 14 C2.18 14.99 2.19 15.98 2.2 16.99 C2.21 17.9 2.22 18.81 2.23 19.75 C2 22 2 22 0 24 C-0.94 15.83 -0.94 8.17 0 0 Z " fill="#88735A" transform="translate(129,917)"/>
<path d="M0 0 C6.69 -0.48 10.78 -0.4 16 4 C15.67 4.66 15.34 5.32 15 6 C9.67 6.51 7.22 5.19 3 2 C2.01 1.34 1.02 0.68 0 0 Z " fill="#000A3D" transform="translate(464,654)"/>
<path d="M0 0 C0.66 0.33 1.32 0.66 2 1 C-3.45 5.45 -3.45 5.45 -9 10 C-9.33 9.34 -9.66 8.68 -10 8 C-10.99 7.67 -11.98 7.34 -13 7 C-9.48 3.89 -6.5 2.3 -2 1 C-1.34 0.67 -0.68 0.34 0 0 Z " fill="#8C775E" transform="translate(874,1037)"/>
<path d="M0 0 C0.99 0.66 1.98 1.32 3 2 C0.07 2.98 -2.31 3.26 -5.38 3.5 C-8.99 3.78 -12.45 4.23 -16 5 C-16 4.01 -16 3.02 -16 2 C-10.68 0.19 -5.63 -0.74 0 0 Z " fill="#031F4E" transform="translate(873,1073)"/>
<path d="M0 0 C0.66 0.33 1.32 0.66 2 1 C1.26 1.58 0.51 2.15 -0.25 2.75 C-2.96 4.87 -2.96 4.87 -4.94 7.06 C-8.23 10.15 -11.45 12 -16 12 C-15 9 -15 9 -13.14 8.01 C-11.99 7.57 -11.99 7.57 -10.81 7.12 C-6.45 5.33 -3.46 3.19 0 0 Z " fill="#745139" transform="translate(390,1078)"/>
<path d="M0 0 C0.99 0.49 0.99 0.49 2 1 C3 4.01 3.1 6.04 3.06 9.19 C3.05 10.09 3.04 10.99 3.04 11.92 C3.02 12.61 3.01 13.29 3 14 C2.01 14.49 2.01 14.49 1 15 C-0.1 11.71 -0.1 9.26 -0.06 5.81 C-0.05 4.73 -0.04 3.64 -0.04 2.52 C-0.02 1.69 -0.01 0.86 0 0 Z " fill="#3B210C" transform="translate(1148,1056)"/>
<path d="M0 0 C0.66 0.66 1.32 1.32 2 2 C1.65 5.98 0.61 9.36 -1 13 C-2.54 10.59 -3.1 9.5 -2.54 6.64 C-2.24 5.85 -1.94 5.06 -1.62 4.25 C-1.33 3.45 -1.03 2.65 -0.73 1.83 C-0.49 1.22 -0.25 0.62 0 0 Z " fill="#9C3838" transform="translate(424,1132)"/>
<path d="M0 0 C0.66 0 1.32 0 2 0 C2 4.29 2 8.58 2 13 C1.01 12.67 0.02 12.34 -1 12 C-0.67 8.04 -0.34 4.08 0 0 Z " fill="#584432" transform="translate(871,945)"/>
<path d="M0 0 C0.66 0.33 1.32 0.66 2 1 C-6.26 6.37 -6.26 6.37 -11 8 C-7.64 4.34 -4.64 1.86 0 0 Z " fill="#000A3D" transform="translate(332,668)"/>
<path d="M0 0 C2.12 0.38 2.12 0.38 4 1 C2.02 1.33 0.04 1.66 -2 2 C-1.34 1.34 -0.68 0.68 0 0 Z " fill="#060203" transform="translate(452,649)"/>
<path d="M0 0 C1 4 1 4 1 4 Z " fill="#3A291B" transform="translate(1148,1051)"/>
<path d="M0 0 C1 4 1 4 1 4 Z " fill="#381C06" transform="translate(124,928)"/>
<path d="" fill="#3A291B" transform="translate(0,0)"/>
<path d="" fill="#381C06" transform="translate(0,0)"/>
<path d="" fill="#610203" transform="translate(0,0)"/>
<path d="" fill="#381C06" transform="translate(0,0)"/>
<path d="" fill="#381C06" transform="translate(0,0)"/>
</svg>
